<svg xmlns="http://www.w3.org/2000/svg" width="16" height="16" viewBox="0 0 16 16">
  <g id="favicon" transform="translate(-145 -373.048)">
    <g id="icon" transform="translate(145 373.048)">
      <g id="グループ_46927" data-name="グループ 46927">
        <circle id="楕円形_3842" data-name="楕円形 3842" cx="8" cy="8" r="8" fill="#fff"/>
      </g>
      <g id="グループ_46929" data-name="グループ 46929">
        <g id="グループ_46928" data-name="グループ 46928">
          <path id="パス_43411" data-name="パス 43411" d="M8.8,3.448a4.859,4.859,0,0,0-1.6,0c-.033,0-.05-.033-.017-.05s.833-.63.833-.63.8.613.833.63c.017.017,0,.05-.05.05M7.417,7.377s-.05.017-.05.05c.167.133.283.414.633.414s.467-.3.633-.414a.124.124,0,0,0-.05-.05A2.873,2.873,0,0,1,8,7.427a2.873,2.873,0,0,1-.583-.05M8,6.9c-.1,0-.117-.033-.183-.033a.331.331,0,0,0-.217.1.125.125,0,0,0,.033.066c.15.017.2.1.367.1s.233-.083.367-.1A.086.086,0,0,0,8.4,6.963a.331.331,0,0,0-.217-.1C8.117,6.847,8.1,6.9,8,6.9m7.983,1.509c-.017.182-.033.381-.05.564-.9.149-1.233-.647-2.15-.613.05.2.1.4.133.6.767,0,1.067.713,1.917.613-.05.216-.1.431-.167.647-.667.066-.917-.6-1.683-.58,0,.116.017.216.017.332v.182c.667,0,.883.6,1.517.58-.083.216-.167.431-.267.63-.45-.033-.617-.613-1.3-.564a4.22,4.22,0,0,1-.083.448c.6-.05.733.514,1.167.547-.117.2-.233.4-.35.58-.25-.133-.483-.547-.967-.564.05-.149.1-.315.133-.464a1.987,1.987,0,0,1-1.333-.547c.133-.763-1.05-1.525-1.05-2.072,0-.6.3-.928.3-1.741a2.53,2.53,0,0,0-.733-1.691,1.681,1.681,0,0,0-.267-.216,2.86,2.86,0,0,1,.717,1.774c0,.763-.35,1.161-.35,1.873,0,.7,1.033,1.31,1.033,2.039a2.335,2.335,0,0,1-.4,1.111,2.324,2.324,0,0,0,1.467.713c.133,0,.2-.033.233-.133.033-.083.083-.166.117-.265.417.017.617.4.85.547l-.4.5a1.582,1.582,0,0,0-.667-.547c-.05.1-.117.216-.167.315a1.182,1.182,0,0,1,.583.514c-.15.149-.3.3-.467.448a1.448,1.448,0,0,0-.433-.464c-.067.083-.133.182-.2.265a1.3,1.3,0,0,1,.367.431c-.183.149-.383.3-.583.431-.1-.812-1.217-1.359-.917-2.3a1.177,1.177,0,0,0-.217.613c0,.68.733,1.21.783,1.89a4.152,4.152,0,0,1-.467.249c-.033-.746-.8-1.558-.8-2.155,0-.68.9-1.359.9-2.172,0-.8-1.033-1.359-1.033-2.056s.433-1.111.433-2.006a2.419,2.419,0,0,0-.8-1.757.953.953,0,0,0-.267-.182,2.565,2.565,0,0,1,.733,1.807c0,.846-.5,1.326-.5,2.155S11.333,10,11.333,10.776s-.95,1.426-.95,2.222c0,.729.833,1.442.85,2.3-.183.083-.367.149-.55.216.1-.862-.833-1.757-.833-2.47,0-.779.983-1.442.983-2.271s-1-1.227-1-2.089.617-1.326.617-2.271a2.265,2.265,0,0,0-.9-1.807l-.033-.033c-.05-.033-.083,0-.05.05a2.4,2.4,0,0,1,.583,1.658c0,.862-.7,1.575-.7,2.4,0,.995.933,1.277.933,2.089S9.267,12.235,9.267,13.1c0,.8.95,1.691.783,2.6-.183.05-.383.1-.583.133.183-1.144-.75-1.973-.75-2.719,0-.812,1.05-1.542,1.05-2.338,0-.746-.75-.995-.85-1.757A.191.191,0,0,0,8.7,8.853a2.3,2.3,0,0,1-.65.133,2.3,2.3,0,0,1-.65-.133.191.191,0,0,0-.217.166c-.1.763-.85,1.011-.85,1.757,0,.8,1.05,1.525,1.05,2.338,0,.746-.933,1.575-.75,2.719-.2-.033-.383-.083-.583-.133-.167-.928.783-1.807.783-2.6,0-.862-1.017-1.509-1.017-2.321s.933-1.094.933-2.089c0-.846-.7-1.542-.7-2.4a2.456,2.456,0,0,1,.583-1.658c.033-.05,0-.083-.05-.05l-.033.033a2.314,2.314,0,0,0-.9,1.807c0,.945.617,1.426.617,2.271,0,.862-1,1.243-1,2.089,0,.829.983,1.509.983,2.271,0,.713-.933,1.608-.833,2.47-.183-.066-.367-.133-.55-.216.017-.862.85-1.575.85-2.3,0-.8-.95-1.442-.95-2.222S5.783,9.533,5.783,8.7s-.5-1.31-.5-2.155a2.565,2.565,0,0,1,.733-1.807,1.511,1.511,0,0,0-.267.182,2.419,2.419,0,0,0-.8,1.757c0,.9.433,1.31.433,2.006S4.35,9.947,4.35,10.743s.9,1.492.9,2.172c0,.613-.767,1.426-.8,2.155-.15-.083-.317-.166-.467-.249.05-.68.783-1.21.783-1.89a1.177,1.177,0,0,0-.217-.613c.3.945-.817,1.492-.917,2.3-.2-.133-.4-.282-.583-.431a1.3,1.3,0,0,1,.367-.431c-.067-.083-.133-.166-.2-.265a1.622,1.622,0,0,0-.433.464c-.167-.149-.317-.3-.467-.448A1.182,1.182,0,0,1,2.9,13a2.876,2.876,0,0,1-.167-.315,1.47,1.47,0,0,0-.667.547c-.133-.166-.283-.332-.4-.5.233-.149.433-.531.85-.547.033.083.067.166.117.265a.223.223,0,0,0,.233.133,2.362,2.362,0,0,0,1.467-.713,2.335,2.335,0,0,1-.4-1.111c0-.729,1.033-1.343,1.033-2.039s-.35-1.111-.35-1.873a2.86,2.86,0,0,1,.717-1.774,1.681,1.681,0,0,0-.267.216A2.486,2.486,0,0,0,4.333,6.98c0,.812.3,1.144.3,1.741,0,.547-1.183,1.326-1.05,2.072a2.071,2.071,0,0,1-1.333.547c.033.149.083.315.133.464-.483.033-.7.431-.967.564a4.132,4.132,0,0,1-.35-.58c.433-.05.567-.6,1.167-.547-.033-.149-.05-.3-.083-.448-.7-.05-.85.531-1.3.564-.1-.2-.183-.414-.267-.63.633.033.85-.58,1.517-.58V9.964a2.21,2.21,0,0,1,.017-.332c-.783-.017-1.017.647-1.683.58C.367,10,.317,9.781.267,9.566c.733.1,1.05-.613,1.817-.613.033-.2.083-.4.133-.6-.933-.05-1.25.763-2.15.613C.05,8.787.033,8.588.017,8.405c1.05.116,1.45-.746,2.4-.647A4.843,4.843,0,0,1,2.733,7.1c-1.2-.216-1.617.8-2.733.647a8,8,0,0,1,16,0c-1.117.149-1.533-.846-2.733-.63.117.216.217.431.317.663.967-.116,1.35.746,2.4.63M4.567,5.056a2.151,2.151,0,0,0-1.917.2A2.083,2.083,0,0,0,1.817,3.9c-.067-.033-.117,0-.117.066A4.192,4.192,0,0,1,.233,7.1c.883.265,1.65-.879,2.8-.481A5.935,5.935,0,0,1,4.567,5.056M8,4.344a1.549,1.549,0,0,0-1.533.962c-.017.033,0,.066.05.05a.992.992,0,0,1,.45-.083.992.992,0,0,1,.733.3,1.262,1.262,0,0,1,0,.746c-.117-.033-.167-.116-.283-.116S7.2,6.283,7,6.283s-.233-.1-.367-.1c-.167,0-.183.166-.183.348,0,.829.767,1.956,1.567,1.956S9.583,7.361,9.583,6.532c0-.182-.033-.348-.2-.365a.488.488,0,0,1-.35.116c-.2,0-.267-.083-.383-.083-.15,0-.133.315-.3.332a1.52,1.52,0,0,1-.033-.945.91.91,0,0,1,.733-.3,1.278,1.278,0,0,1,.45.083q.075.025.05-.05A1.577,1.577,0,0,0,8,4.344M9.183,5.521a.679.679,0,0,0-.517.2.182.182,0,0,0,0,.133.727.727,0,0,1,.75.033.286.286,0,0,0,.1-.2c0-.1-.117-.166-.333-.166m-2.6.381a.842.842,0,0,1,.833-.017c.017-.166-.283-.348-.6-.348-.217,0-.333.066-.333.182a.288.288,0,0,0,.1.182M11.7,3.117a2.68,2.68,0,0,0-1.5.58,5.371,5.371,0,0,1,.683-1.343,2.975,2.975,0,0,0-1.833.812L8.7,2.238l.783-.7L8.417,1.475,8,.481l-.417.978-1.067.066.783.7-.35.928a2.934,2.934,0,0,0-1.833-.812A5.994,5.994,0,0,1,5.8,3.68,2.729,2.729,0,0,0,4.3,3.1a7.21,7.21,0,0,1,.9,1.442.1.1,0,0,0,.15.05,6.1,6.1,0,0,1,5.333,0,.1.1,0,0,0,.15-.05A6.053,6.053,0,0,1,11.7,3.117m1.283,3.515c1.15-.4,1.9.746,2.8.481a4.192,4.192,0,0,1-1.467-3.133c0-.066-.05-.116-.117-.066a2.02,2.02,0,0,0-.833,1.359,2.1,2.1,0,0,0-1.917-.2,5.947,5.947,0,0,1,1.533,1.558" fill="#006241"/>
        </g>
      </g>
    </g>
    <path id="パス_43416" data-name="パス 43416" d="M.605-2.994H.773a1.409,1.409,0,0,1,.2.009v-.18a1.421,1.421,0,0,1-.2.009H.242A1.347,1.347,0,0,1,.06-3.164v.18a1.33,1.33,0,0,1,.184-.009H.424v.731a1.123,1.123,0,0,1-.011.174h.2a1.112,1.112,0,0,1-.011-.174Zm1.124.906a1.091,1.091,0,0,1,.059-.178l.2-.472a1.635,1.635,0,0,0,.062-.2c0,.02-.005.088-.011.2v.445a1.246,1.246,0,0,1-.011.2h.188a1.161,1.161,0,0,1-.011-.2v-.672a1.387,1.387,0,0,1,.011-.2H1.97A.742.742,0,0,1,1.922-3l-.271.664L1.38-3a.927.927,0,0,1-.05-.159H1.085a1.329,1.329,0,0,1,.011.2v.672a1.256,1.256,0,0,1-.011.2h.188a1.224,1.224,0,0,1-.011-.2v-.439c0-.029-.005-.139-.011-.21a1.491,1.491,0,0,0,.068.2l.193.459a.912.912,0,0,1,.059.181Z" transform="translate(157.779 391.136)" fill="#006241"/>
  </g>
</svg>
