<svg viewBox="0 0 29.76 29.76" xmlns="http://www.w3.org/2000/svg"><path d="m0 0h29.76v29.76h-29.76z" fill="none"/><path d="m6.25 19v.87l-.25 1.23a5.66 5.66 0 0 1 .14 1.9v.58l.94.11 1-.69.82.12.93-.25c-.09-.73-.86-1.47-.24-2.2-.21-1.25.32-2.24.46-3.37-.28-1.16.36-2.24.47-3.36h1c.47.39.45 1.19 1.16 1.26.8.63.25 1.92.58 2.58.13 2.75.75 5.41.34 8.22h-12.67c.18-1.39-.87-2.69 0-3.95l-.11-1.55c.5-1.15 0-2.76.46-3.94a2 2 0 0 1 -.46-1.73 17.93 17.93 0 0 1 .36-3.3l.46-.64 1.51-.36-1.75-.35c-.47-.48-1.34-.73-1.4-1.51l.13-.43.34-1.3c3.81-1.61 8.82-.78 13.21-1.17.68.5 1.77 0 2.45.47.14-.93.08-2.12.91-2.56a2.54 2.54 0 0 1 2.21 1.05c-.21 1 .72 1 .87 1.83l-.06.38c.46.79 1.22 0 1.78-.21 2.3.29 4 0 5.86.87l1.05.84a8.75 8.75 0 0 1 1 3.84c-.43.5-.94.37-1.33 1.18l.32.91a21.66 21.66 0 0 0 .35 6.26 15 15 0 0 0 .22 3.24c.15.7-.17 1.06 0 2.21h-4.5c.18-1.74-.36-3.29-.13-4.87a20.74 20.74 0 0 1 .25-7.66c-.39-.73.51-1.33 1-1.75l-1-.58c-1.62.53-4.3-.72-4.75-.33l-.25.22.58.24c.83.93-.19 7.35.46 10.91.94.83.41 2.53.82 3.7h-6a34.3 34.3 0 0 1 -.46-11.24l.35-4 .47-.46c-1-.92-2.09.26-3.15-.13a43.82 43.82 0 0 1 -4.75.13l-2-.13-1.15.46c.2.68 1.32 1.07 1.28 2-.44 1.63.55 3.17-.25 4.87z" fill="#126bb5"/></svg>