<svg xmlns="http://www.w3.org/2000/svg" fill="none" viewBox="0 0 150 150"><rect width="150" height="150" rx="30" fill="#394EFF"></rect><path d="M115.492 75L48.5361 35.7051V114.295L115.492 75ZM124.629 66.8773C127.507 68.5448 129.284 71.6439 129.284 75C129.284 78.3561 127.507 81.4552 124.629 83.1227L51.2241 126.211C45.2253 129.735 37 125.709 37 118.088V31.9122C37 24.2913 45.2253 20.2649 51.2241 23.7894L124.629 66.8773Z" fill="white"></path><path d="M85.1334 72.8339C85.9099 73.2786 86.3889 74.1051 86.3889 75C86.3889 75.8949 85.9099 76.7214 85.1334 77.1661L65.3362 88.6562C63.7184 89.596 61.5 88.5223 61.5 86.4901V63.5099C61.5 61.4777 63.7184 60.404 65.3362 61.3438L85.1334 72.8339Z" fill="white"></path></svg>