<svg xmlns="http://www.w3.org/2000/svg" xmlns:xlink="http://www.w3.org/1999/xlink" width="100" height="100" viewBox="0 0 100 100"><defs><clipPath id="a"><path d="M50,0A50,50,0,1,1,0,50,50,50,0,0,1,50,0Z" transform="translate(1551 11)" fill="#e7372f"/></clipPath></defs><g transform="translate(-58.133)"><path d="M50,0A50,50,0,1,1,0,50,50,50,0,0,1,50,0Z" transform="translate(58.133)" fill="#e7372f"/><g transform="translate(-1492.867 -11)" clip-path="url(#a)"><g transform="translate(1555.05 25.981)"><g transform="translate(14.254 0)"><path d="M354.015,422.313a33.925,33.925,0,0,0-64.677,0,10.9,10.9,0,0,1,4.394,2.666,10.335,10.335,0,0,1,2.991,7.5c-.007.294-.025.587-.06.93a10.891,10.891,0,0,1-1,3.549,10.846,10.846,0,0,1,2.574,12.794,10.932,10.932,0,0,1,3.613,7.625,11.093,11.093,0,0,1-.2,2.524,33.744,33.744,0,0,0,40.065,0,11.1,11.1,0,0,1-.205-2.528,10.942,10.942,0,0,1,3.617-7.622,10.84,10.84,0,0,1,2.574-12.79,10.686,10.686,0,0,1-1-3.525,9.548,9.548,0,0,1-.064-1,10.306,10.306,0,0,1,2.991-7.456A10.9,10.9,0,0,1,354.015,422.313Zm-32.337,18.92a8.667,8.667,0,1,1,8.665-8.668A8.672,8.672,0,0,1,321.678,441.233Z" transform="translate(-289.338 -398.641)" fill="#fee100"/></g><path d="M311.593,443.871A1.9,1.9,0,0,1,312.6,445.9l-.665,3.319-7.749,15.834h11.489l6.271-12.868,8.672-43.734-9.556-1.923a6.387,6.387,0,0,0-7.721,6.162c0,.194.014.389.035.587a6.5,6.5,0,0,0,2.319,4.32.964.964,0,0,1-.364,1.661,5.6,5.6,0,0,0-1.414.559,6.495,6.495,0,0,0-.8,10.563.943.943,0,0,1-.315,1.647,5.617,5.617,0,0,0-1.425.559,6.5,6.5,0,0,0,.216,11.288Z" transform="translate(-237.439 -378.972)" fill="#fff"/><path d="M300.249,465.051h11.493l-7.749-15.834-.668-3.319a1.9,1.9,0,0,1,1.008-2.026,6.5,6.5,0,0,0,.216-11.288,5.619,5.619,0,0,0-1.425-.559.942.942,0,0,1-.311-1.647,6.495,6.495,0,0,0-.8-10.563,5.542,5.542,0,0,0-1.414-.559.964.964,0,0,1-.364-1.661,6.5,6.5,0,0,0,2.316-4.32c.021-.2.032-.392.039-.587a6.387,6.387,0,0,0-7.721-6.162l-9.559,1.923,8.672,43.734Z" transform="translate(-285.306 -378.972)" fill="#fff"/></g></g></g></svg>