<svg id="design" xmlns="http://www.w3.org/2000/svg" viewBox="0 0 1680 300"><defs><style>.cls-1{fill:#fff;}.cls-2{opacity:0.4;}</style></defs><path class="cls-1" d="M734.29,126.57H693.14a3.44,3.44,0,0,0-3.43,3.43v95.14H580V130a3.43,3.43,0,0,0-3.43-3.43H535.43A3.43,3.43,0,0,0,532,130V370a3.43,3.43,0,0,0,3.43,3.43h41.14A3.43,3.43,0,0,0,580,370V261.14H689.71V370a3.44,3.44,0,0,0,3.43,3.43h41.15a3.43,3.43,0,0,0,3.42-3.43V130A3.43,3.43,0,0,0,734.29,126.57Z" transform="translate(-100 -100)"/><path class="cls-1" d="M965.71,195.14H924.57a3.44,3.44,0,0,0-3.43,3.43v8.82a78.5,78.5,0,0,0-51.43-19.1h0a92.57,92.57,0,0,0-92.57,92.57v6.85a92.58,92.58,0,0,0,92.57,92.58h0a78.51,78.51,0,0,0,51.43-19.11V370a3.44,3.44,0,0,0,3.43,3.43h41.14a3.43,3.43,0,0,0,3.43-3.43V198.57A3.43,3.43,0,0,0,965.71,195.14ZM924.57,301.43a42.86,42.86,0,0,1-42.86,42.86h0a56.58,56.58,0,0,1-56.57-56.58v-6.85a56.57,56.57,0,0,1,56.57-56.57h0a42.85,42.85,0,0,1,42.86,42.85Z" transform="translate(-100 -100)"/><path class="cls-1" d="M1118.29,227.71V198.57a3.44,3.44,0,0,0-3.43-3.43h-27.43V157.43A3.44,3.44,0,0,0,1084,154h-41.14a3.43,3.43,0,0,0-3.43,3.43v37.71H1012a3.44,3.44,0,0,0-3.43,3.43v29.14a3.43,3.43,0,0,0,3.43,3.43h27.43V322a3.38,3.38,0,0,0,.08.72c0,.9-.08,1.8-.08,2.71a48,48,0,0,0,48,48h27.43a3.44,3.44,0,0,0,3.43-3.43V340.86a3.43,3.43,0,0,0-3.43-3.43h-15.43a12,12,0,0,1-12-12h0V231.14h27.43A3.43,3.43,0,0,0,1118.29,227.71Z" transform="translate(-100 -100)"/><path class="cls-1" d="M1252,188.29h-6.86a92.57,92.57,0,0,0-92.57,92.57v6.85a93.44,93.44,0,0,0,1.15,14.58h0a90.44,90.44,0,0,0,2.51,11.2c.1.36.2.73.31,1.09.28.92.58,1.83.89,2.73.15.45.3.91.46,1.36.3.86.63,1.71,1,2.56q.27.72.57,1.44c.33.82.68,1.64,1,2.45l.66,1.46c.37.79.75,1.58,1.13,2.36l.74,1.44c.4.77.81,1.54,1.23,2.3l.8,1.39c.44.75.88,1.51,1.34,2.25.26.43.55.86.82,1.29.49.75,1,1.51,1.47,2.25l.71,1a91.7,91.7,0,0,0,5.85,7.48c.36.41.71.84,1.08,1.25.53.58,1.07,1.15,1.61,1.72s.86.91,1.3,1.36,1.07,1.07,1.62,1.59.94.92,1.42,1.36l1.65,1.49,1.54,1.33c.55.46,1.11.93,1.68,1.38s1.09.87,1.64,1.29,1.12.86,1.7,1.28,1.17.84,1.76,1.26,1.13.79,1.7,1.17,1.27.82,1.91,1.23l1.67,1c.73.44,1.47.86,2.22,1.28.49.27,1,.56,1.47.83,1.23.66,2.47,1.3,3.73,1.91l1.14.52c.92.43,1.84.86,2.77,1.26l1.58.64c.81.32,1.62.65,2.44,1,.57.22,1.14.41,1.72.61.79.28,1.58.55,2.38.81l1.8.55,2.4.68,1.84.47c.82.2,1.63.39,2.45.56l1.86.39c.84.16,1.68.31,2.53.45l1.84.3c.89.13,1.78.23,2.68.34l1.75.2c1,.1,2,.16,3,.23.49,0,1,.08,1.49.1,1.5.07,3,.12,4.54.12H1252a92.27,92.27,0,0,0,69.2-31.16,3.05,3.05,0,0,0,.51-.66,3.42,3.42,0,0,0-1.25-4.68h0L1296.57,330l-5.48-3.17a3.42,3.42,0,0,0-4.28.7h0A44.48,44.48,0,0,1,1252,344.29h-6.86a44.57,44.57,0,0,1-44.49-42H1340a4,4,0,0,0,3.84-3.41l.6-7.74c.08-1.88.14-5,.14-6.85v-3.43A92.56,92.56,0,0,0,1252,188.29Zm-51.35,78a44.57,44.57,0,0,1,44.49-42H1252a44.57,44.57,0,0,1,44.49,42Z" transform="translate(-100 -100)"/><path class="cls-1" d="M1558.7,252.46a68.57,68.57,0,0,0-130.13-25.52V198.57a3.43,3.43,0,0,0-3.43-3.43H1384a3.44,3.44,0,0,0-3.43,3.43V370a3.44,3.44,0,0,0,3.43,3.43h41.14a3.43,3.43,0,0,0,3.43-3.43V277.43h0c0-.26,0-.52,0-.78a41.15,41.15,0,0,1,82.29,0c0,.26,0,.52,0,.78h0V370a3.43,3.43,0,0,0,3.43,3.43h41.14a3.44,3.44,0,0,0,3.43-3.43V253.43A3.46,3.46,0,0,0,1558.7,252.46Z" transform="translate(-100 -100)"/><path class="cls-1" d="M1776.57,195.14h-41.14a3.43,3.43,0,0,0-3.43,3.43v8.82a78.5,78.5,0,0,0-51.43-19.1h0A92.57,92.57,0,0,0,1588,280.86v6.85a92.58,92.58,0,0,0,92.57,92.58h0A78.51,78.51,0,0,0,1732,361.18V370a3.43,3.43,0,0,0,3.43,3.43h41.14A3.43,3.43,0,0,0,1780,370V198.57A3.43,3.43,0,0,0,1776.57,195.14Zm-41.14,106.29a42.86,42.86,0,0,1-42.86,42.86h0A56.58,56.58,0,0,1,1636,287.71v-6.85a56.57,56.57,0,0,1,56.57-56.57h0a42.85,42.85,0,0,1,42.86,42.85Z" transform="translate(-100 -100)"/><circle class="cls-1" cx="120" cy="24" r="24"/><circle class="cls-1" cx="264" cy="84" r="24"/><circle class="cls-1" cx="72" cy="84" r="24"/><circle class="cls-1" cx="168" cy="276" r="24"/><circle class="cls-1" cx="216" cy="24" r="24"/><circle class="cls-1" cx="216" cy="144" r="24"/><g class="cls-2"><circle class="cls-1" cx="168" cy="84" r="24"/></g><g class="cls-2"><circle class="cls-1" cx="168" cy="204" r="24"/></g><g class="cls-2"><circle class="cls-1" cx="264" cy="204" r="24"/></g><g class="cls-2"><circle class="cls-1" cx="72" cy="204" r="24"/></g><g class="cls-2"><circle class="cls-1" cx="120" cy="144" r="24"/></g><g class="cls-2"><circle class="cls-1" cx="24" cy="144" r="24"/></g><g class="cls-2"><circle class="cls-1" cx="312" cy="144" r="24"/></g></svg>