<?xml version="1.0" encoding="UTF-8"?>
<svg xmlns="http://www.w3.org/2000/svg" xmlns:xlink="http://www.w3.org/1999/xlink" viewBox="0 0 5838.96 745">
  <defs>
    <style>
      .cls-1 {
        fill: none;
      }

      .cls-1, .cls-2, .cls-3, .cls-4, .cls-5, .cls-6, .cls-7 {
        stroke-width: 0px;
      }

      .cls-2 {
        fill: url(#linear-gradient);
      }

      .cls-3 {
        fill: #5f6368;
      }

      .cls-4 {
        fill: #1a73e8;
      }

      .cls-5 {
        fill: url(#linear-gradient-2);
      }

      .cls-6 {
        fill: url(#linear-gradient-3);
      }

      .cls-7 {
        fill: #fff;
      }
    </style>
    <linearGradient id="linear-gradient" x1="-1339.94" y1="561.18" x2="-1136.64" y2="561.18" gradientTransform="translate(3674.6 1751.58) scale(2.67 -2.67)" gradientUnits="userSpaceOnUse">
      <stop offset="0" stop-color="#d93025"/>
      <stop offset="1" stop-color="#ea4335"/>
    </linearGradient>
    <linearGradient id="linear-gradient-2" x1="-2780.04" y1="53.92" x2="-2576.72" y2="53.92" gradientTransform="translate(-3175.83 -5826) rotate(-120) scale(2.67 -2.67)" gradientUnits="userSpaceOnUse">
      <stop offset="0" stop-color="#1e8e3e"/>
      <stop offset="1" stop-color="#34a853"/>
    </linearGradient>
    <linearGradient id="linear-gradient-3" x1="-2493.08" y1="1589.86" x2="-2289.77" y2="1589.86" gradientTransform="translate(-6396.89 3852.91) rotate(120) scale(2.67 -2.67)" gradientUnits="userSpaceOnUse">
      <stop offset="0" stop-color="#fbbc04"/>
      <stop offset="1" stop-color="#fcc934"/>
    </linearGradient>
  </defs>
  <g id="Product_name" data-name="Product name">
    <g id="_type_product_name_here_" data-name="(type product name here)">
      <g>
        <path class="cls-3" d="M1144.91,536.81c-35.94,0-65.5-12.17-88.69-36.5-23.2-24.33-34.79-54.8-34.79-91.38s11.59-67.05,34.79-91.39c23.19-24.33,52.75-36.5,88.69-36.5,26.78,0,49,6.54,66.64,19.6,17.64,13.07,30.54,29.57,38.71,49.49l-41.16,17.15c-12.42-30.05-34.79-45.08-67.13-45.08-19.93,0-37.48,8.17-52.67,24.5-15.19,16.34-22.79,37.08-22.79,62.23s7.59,45.9,22.79,62.23c15.19,16.34,32.75,24.5,52.67,24.5,33.64,0,56.84-15.02,69.58-45.08l40.18,17.15c-8.17,19.6-21.31,36.01-39.44,49.25-18.13,13.23-40.59,19.84-67.38,19.84Z"/>
        <path class="cls-3" d="M1324.34,178.13v110.74l-1.96,33.32h1.96c6.53-11.43,16.82-21.15,30.87-29.16,14.04-8,29.07-12,45.08-12,29.72,0,52.43,9.15,68.11,27.44,15.68,18.3,23.52,42.8,23.52,73.5v147h-45.08v-140.14c0-44.42-19.77-66.64-59.29-66.64-18.62,0-33.81,7.43-45.57,22.29-11.76,14.87-17.64,32.09-17.64,51.7v132.79h-45.08V178.13h45.08Z"/>
        <path class="cls-3" d="M1580.75,528.97h-45.08v-240.1h43.12v39.2h1.96c4.57-13.06,13.97-23.84,28.18-32.34,14.21-8.49,28.01-12.74,41.4-12.74s24.66,1.96,33.81,5.88l-17.15,42.14c-5.88-2.28-13.89-3.43-24.01-3.43-16.34,0-30.79,6.46-43.37,19.36-12.58,12.91-18.87,29.81-18.87,50.71v131.32Z"/>
        <path class="cls-3" d="M1714.52,317.53c23.19-24.33,52.75-36.5,88.69-36.5s65.49,12.17,88.69,36.5c23.19,24.34,34.79,54.8,34.79,91.39s-11.6,67.05-34.79,91.38c-23.2,24.34-52.76,36.5-88.69,36.5s-65.5-12.17-88.69-36.5c-23.2-24.33-34.79-54.8-34.79-91.38s11.59-67.05,34.79-91.39ZM1748.08,471.88c15.51,15.85,33.89,23.76,55.12,23.76s39.61-7.92,55.12-23.76c15.51-15.84,23.27-36.83,23.27-62.96s-7.76-47.12-23.27-62.97c-15.52-15.84-33.89-23.76-55.12-23.76s-39.61,7.92-55.12,23.76c-15.52,15.85-23.28,36.83-23.28,62.97s7.76,47.12,23.28,62.96Z"/>
        <path class="cls-3" d="M1958.68,528.97v-240.1h43.12v33.32h1.96c6.86-11.43,17.4-21.15,31.61-29.16,14.21-8,28.34-12,42.38-12,37.24,0,62.55,15.36,75.95,46.06,19.6-30.7,47.53-46.06,83.79-46.06,28.42,0,49.81,9.07,64.19,27.2,14.37,18.13,21.56,42.71,21.56,73.75v147h-45.08v-140.14c0-24.17-4.41-41.32-13.23-51.45-8.82-10.12-22.22-15.19-40.18-15.19s-32.26,7.52-43.85,22.54c-11.6,15.03-17.4,32.18-17.4,51.45v132.79h-45.08v-140.14c0-24.17-4.41-41.32-13.23-51.45-8.82-10.12-22.22-15.19-40.18-15.19s-32.26,7.52-43.85,22.54c-11.6,15.03-17.4,32.18-17.4,51.45v132.79h-45.08Z"/>
        <path class="cls-3" d="M2475.97,536.81c-36.26,0-65.74-12.08-88.44-36.26-22.71-24.17-34.06-54.71-34.06-91.63,0-34.95,11.03-65,33.08-90.16,22.05-25.15,50.22-37.73,84.53-37.73s64.11,11.6,85.5,34.79c21.39,23.2,32.09,54.23,32.09,93.1l-.49,8.33h-189.63c1.3,24.18,9.39,43.29,24.25,57.33,14.86,14.05,32.26,21.07,52.19,21.07,32.34,0,54.22-13.72,65.66-41.16l40.18,16.66c-7.84,18.62-20.75,34.22-38.71,46.79-17.97,12.57-40.02,18.87-66.15,18.87ZM2540.65,380.01c-.98-13.72-7.27-26.78-18.87-39.2-11.6-12.41-28.83-18.62-51.7-18.62-16.66,0-31.12,5.23-43.37,15.68-12.25,10.46-20.66,24.5-25.23,42.14h139.16Z"/>
        <path class="cls-3" d="M2852.28,176.17c14.37,0,26.46,2.13,36.26,6.37l-15.68,38.71c-5.23-2.61-12.09-3.92-20.58-3.92-11.76,0-21.4,3.51-28.91,10.54-7.52,7.03-11.27,17.23-11.27,30.62v30.38h62.72v41.16h-62.72v198.94h-45.08v-198.94h-45.08v-41.16h45.08v-31.85c0-24.5,7.84-44.1,23.52-58.8,15.68-14.7,36.26-22.05,61.74-22.05Z"/>
        <path class="cls-3" d="M2920.24,317.53c23.19-24.33,52.75-36.5,88.69-36.5s65.49,12.17,88.69,36.5c23.19,24.34,34.79,54.8,34.79,91.39s-11.6,67.05-34.79,91.38c-23.2,24.34-52.76,36.5-88.69,36.5s-65.5-12.17-88.69-36.5c-23.2-24.33-34.79-54.8-34.79-91.38s11.59-67.05,34.79-91.39ZM2953.81,471.88c15.51,15.85,33.89,23.76,55.12,23.76s39.61-7.92,55.12-23.76c15.51-15.84,23.27-36.83,23.27-62.96s-7.76-47.12-23.27-62.97c-15.52-15.84-33.89-23.76-55.12-23.76s-39.61,7.92-55.12,23.76c-15.52,15.85-23.28,36.83-23.28,62.97s7.76,47.12,23.28,62.96Z"/>
        <path class="cls-3" d="M3209.49,528.97h-45.08v-240.1h43.12v39.2h1.96c4.57-13.06,13.97-23.84,28.18-32.34,14.21-8.49,28.01-12.74,41.4-12.74s24.66,1.96,33.81,5.88l-17.15,42.14c-5.88-2.28-13.89-3.43-24.01-3.43-16.34,0-30.79,6.46-43.37,19.36-12.58,12.91-18.87,29.81-18.87,50.71v131.32Z"/>
        <path class="cls-3" d="M3550.52,536.81c-31.04,0-57.82-12.25-80.36-36.75s-33.81-54.88-33.81-91.14,11.27-66.64,33.81-91.14,49.32-36.75,80.36-36.75c18.29,0,34.71,3.92,49.25,11.76,14.53,7.84,25.4,17.64,32.58,29.4h1.96l-1.96-33.32v-110.74h45.08v350.84h-43.12v-33.32h-1.96c-7.19,11.76-18.05,21.56-32.58,29.4-14.54,7.84-30.95,11.76-49.25,11.76ZM3557.87,495.65c21.23,0,39.28-7.84,54.14-23.52,14.86-15.68,22.29-36.75,22.29-63.21s-7.43-47.53-22.29-63.21c-14.87-15.68-32.91-23.52-54.14-23.52s-38.88,7.92-53.9,23.76c-15.03,15.85-22.54,36.83-22.54,62.97s7.51,47.12,22.54,62.96c15.02,15.85,32.99,23.76,53.9,23.76Z"/>
        <path class="cls-3" d="M3832.21,536.81c-36.26,0-65.74-12.08-88.44-36.26-22.71-24.17-34.06-54.71-34.06-91.63,0-34.95,11.03-65,33.08-90.16,22.05-25.15,50.22-37.73,84.53-37.73s64.11,11.6,85.5,34.79c21.39,23.2,32.09,54.23,32.09,93.1l-.49,8.33h-189.63c1.3,24.18,9.39,43.29,24.25,57.33,14.86,14.05,32.26,21.07,52.19,21.07,32.34,0,54.22-13.72,65.66-41.16l40.18,16.66c-7.84,18.62-20.75,34.22-38.71,46.79-17.97,12.57-40.02,18.87-66.15,18.87ZM3896.89,380.01c-.98-13.72-7.27-26.78-18.87-39.2-11.6-12.41-28.83-18.62-51.7-18.62-16.66,0-31.12,5.23-43.37,15.68-12.25,10.46-20.66,24.5-25.23,42.14h139.16Z"/>
        <path class="cls-3" d="M4039.38,528.97l-97.02-240.1h49l70.56,186.2h.98l71.54-186.2h48.02l-98,240.1h-45.08Z"/>
        <path class="cls-3" d="M4301.62,536.81c-36.26,0-65.74-12.08-88.44-36.26-22.71-24.17-34.06-54.71-34.06-91.63,0-34.95,11.03-65,33.08-90.16,22.05-25.15,50.22-37.73,84.53-37.73s64.11,11.6,85.5,34.79c21.39,23.2,32.09,54.23,32.09,93.1l-.49,8.33h-189.63c1.3,24.18,9.39,43.29,24.25,57.33,14.86,14.05,32.26,21.07,52.19,21.07,32.34,0,54.22-13.72,65.66-41.16l40.18,16.66c-7.84,18.62-20.75,34.22-38.71,46.79-17.97,12.57-40.02,18.87-66.15,18.87ZM4366.3,380.01c-.98-13.72-7.27-26.78-18.87-39.2-11.6-12.41-28.83-18.62-51.7-18.62-16.66,0-31.12,5.23-43.37,15.68-12.25,10.46-20.66,24.5-25.23,42.14h139.16Z"/>
        <path class="cls-3" d="M4491.4,528.97h-45.08V178.13h45.08v350.84Z"/>
        <path class="cls-3" d="M4558.77,317.53c23.19-24.33,52.75-36.5,88.69-36.5s65.49,12.17,88.69,36.5c23.19,24.34,34.79,54.8,34.79,91.39s-11.6,67.05-34.79,91.38c-23.2,24.34-52.76,36.5-88.69,36.5s-65.5-12.17-88.69-36.5c-23.2-24.33-34.79-54.8-34.79-91.38s11.59-67.05,34.79-91.39ZM4592.33,471.88c15.51,15.85,33.89,23.76,55.12,23.76s39.61-7.92,55.12-23.76c15.51-15.84,23.27-36.83,23.27-62.96s-7.76-47.12-23.27-62.97c-15.52-15.84-33.89-23.76-55.12-23.76s-39.61,7.92-55.12,23.76c-15.52,15.85-23.28,36.83-23.28,62.97s7.76,47.12,23.28,62.96Z"/>
        <path class="cls-3" d="M4928.96,536.81c-18.3,0-34.71-3.92-49.25-11.76-14.54-7.84-25.4-17.64-32.58-29.4h-1.96l1.96,33.32v105.84h-45.08v-345.94h43.12v33.32h1.96c7.18-11.76,18.05-21.56,32.58-29.4,14.53-7.84,30.95-11.76,49.25-11.76,31.03,0,57.82,12.25,80.36,36.75s33.81,54.88,33.81,91.14-11.27,66.64-33.81,91.14-49.33,36.75-80.36,36.75ZM4921.61,495.65c20.9,0,38.87-7.92,53.9-23.76,15.02-15.84,22.54-36.83,22.54-62.96s-7.52-47.12-22.54-62.97c-15.03-15.84-33-23.76-53.9-23.76s-39.28,7.84-54.15,23.52c-14.87,15.68-22.29,36.75-22.29,63.21s7.43,47.53,22.29,63.21c14.86,15.68,32.91,23.52,54.15,23.52Z"/>
        <path class="cls-3" d="M5185.33,536.81c-36.26,0-65.74-12.08-88.44-36.26-22.71-24.17-34.06-54.71-34.06-91.63,0-34.95,11.03-65,33.08-90.16,22.05-25.15,50.22-37.73,84.53-37.73s64.11,11.6,85.5,34.79c21.39,23.2,32.09,54.23,32.09,93.1l-.49,8.33h-189.63c1.3,24.18,9.39,43.29,24.25,57.33,14.86,14.05,32.26,21.07,52.19,21.07,32.34,0,54.22-13.72,65.66-41.16l40.18,16.66c-7.84,18.62-20.75,34.22-38.71,46.79-17.97,12.57-40.02,18.87-66.15,18.87ZM5250.01,380.01c-.98-13.72-7.27-26.78-18.87-39.2-11.6-12.41-28.83-18.62-51.7-18.62-16.66,0-31.12,5.23-43.37,15.68-12.25,10.46-20.66,24.5-25.23,42.14h139.16Z"/>
        <path class="cls-3" d="M5374.51,528.97h-45.08v-240.1h43.12v39.2h1.96c4.57-13.06,13.97-23.84,28.18-32.34,14.21-8.49,28.01-12.74,41.4-12.74s24.66,1.96,33.81,5.88l-17.15,42.14c-5.88-2.28-13.89-3.43-24.01-3.43-16.34,0-30.79,6.46-43.37,19.36-12.58,12.91-18.87,29.81-18.87,50.71v131.32Z"/>
        <path class="cls-3" d="M5582.86,536.81c-26.79,0-48.92-6.54-66.4-19.6-17.48-13.06-30.3-29.4-38.46-49l40.18-16.66c12.74,30.06,34.46,45.08,65.17,45.08,14.04,0,25.56-3.1,34.54-9.31,8.98-6.2,13.47-14.37,13.47-24.5,0-15.68-10.95-26.29-32.83-31.85l-48.51-11.76c-15.36-3.92-29.89-11.35-43.61-22.3-13.72-10.94-20.58-25.72-20.58-44.34,0-21.23,9.39-38.46,28.18-51.7,18.78-13.23,41.08-19.84,66.88-19.84,21.23,0,40.18,4.82,56.84,14.46,16.66,9.64,28.58,23.44,35.77,41.41l-39.2,16.17c-8.82-21.23-27.12-31.85-54.88-31.85-13.4,0-24.67,2.78-33.81,8.33-9.15,5.56-13.72,13.07-13.72,22.54,0,13.72,10.61,23.03,31.85,27.93l47.53,11.27c22.54,5.23,39.2,14.21,49.98,26.95,10.78,12.74,16.17,27.12,16.17,43.12,0,21.56-8.82,39.53-26.46,53.9-17.64,14.37-40.35,21.56-68.11,21.56Z"/>
      </g>
    </g>
  </g>
  <g id="ICON">
    <g>
      <rect class="cls-1" x="31.04" y="31.04" width="682.92" height="682.92"/>
      <g>
        <path class="cls-2" d="M101.43,215.93l43.14,131.64,92.41,103.15,135.52-234.72,271.07-.04c-54.14-93.55-155.26-156.47-271.07-156.47S155.57,122.42,101.43,215.93Z"/>
        <path class="cls-5" d="M372.46,685.5l92.41-103.18,43.11-131.6H236.95L101.4,215.96c-53.92,93.65-57.87,212.7.04,313,57.94,100.3,163.01,156.43,271.03,156.54Z"/>
        <path class="cls-6" d="M643.57,216h-271.07l135.52,234.75-135.52,234.75c108.06-.11,213.13-56.23,271.03-156.54,57.91-100.3,53.96-219.35.04-312.97Z"/>
        <ellipse class="cls-7" cx="372.5" cy="372.46" rx="156.47" ry="156.5"/>
        <ellipse class="cls-4" cx="372.5" cy="372.46" rx="127.12" ry="127.16"/>
      </g>
    </g>
  </g>
</svg> 
