<svg fill="none" xmlns="http://www.w3.org/2000/svg" viewBox="0 0 215 64">
  <path d="M1.075 45.0793c0-2.8787 2.34955-5.2124 5.24795-5.2124H34.312c2.8984 0 5.248 2.3337 5.248 5.2124s-2.3496 5.2124-5.248 5.2124H6.32295c-2.8984 0-5.24795-2.3337-5.24795-5.2124Z" fill="#6CF"/>
  <path fill-rule="evenodd" clip-rule="evenodd" d="M2.61209 13.5944c2.04945-2.0356 5.37228-2.0356 7.42171 0L24.0283 27.494c2.0495 2.0355 2.0495 5.3358 0 7.3714L10.0338 48.765c-2.04943 2.0355-5.37226 2.0355-7.42171 0-2.049454-2.0356-2.049454-5.3358 0-7.3714l9.66521-9.5996c.3416-.3393.3416-.8894 0-1.2286l-9.66521-9.5997c-2.049454-2.0355-2.049454-5.3358 0-7.3713Z" fill="#06F"/>
  <path d="m18.9926 39.8669-8.9588 8.8981c-2.04943 2.0355-5.37226 2.0355-7.42171 0-2.049454-2.0356-2.049454-5.3358 0-7.3714l1.53712-1.5267H18.9926Z" fill="#C6F"/>
  <path d="M34.312 50.2917c2.8984 0 5.248-2.3337 5.248-5.2124s-2.3496-5.2124-5.248-5.2124c-2.8983 0-5.2479 2.3337-5.2479 5.2124s2.3496 5.2124 5.2479 5.2124Z" fill="#06F"/>
  <path fill-rule="evenodd" clip-rule="evenodd" d="M200.552 45.3376h-3.784l-8.256-20.3292h4.128l6.02 15.7167 6.02-15.7167h4.128l-8.256 20.3292Zm-28.896-12.4708h11.696c-.172-2.7334-2.408-4.9542-5.848-4.9542-2.924 0-5.16 1.8792-5.848 4.9542Zm6.192 13.1541c-6.02 0-10.32-4.6125-10.32-10.7625 0-6.15 4.3-10.7625 10.148-10.7625 6.02 0 9.976 4.1 9.976 11.1042v.3417h-15.996c.172 3.9291 3.096 6.6625 6.536 6.6625 2.408 0 4.472-1.1959 5.676-3.5876l3.44 1.7084c-1.892 3.2458-5.332 5.2958-9.46 5.2958Zm-24.08 0c-5.332 0-9.804-4.7833-9.804-10.7625s4.472-10.7625 9.804-10.7625c2.924 0 5.676 1.3667 7.052 3.4167h.172l-.172-2.7333v-9.3959h3.784v29.5542h-3.612v-2.7333h-.172c-1.548 2.05-4.128 3.4166-7.052 3.4166Zm.516-3.4166c3.784 0 6.536-2.9042 6.536-7.3459 0-4.2708-2.752-7.3458-6.536-7.3458-3.612 0-6.536 3.075-6.536 7.3458 0 4.2708 2.924 7.3459 6.536 7.3459Zm-11.696.1708c0 1.5375-1.204 2.7333-2.924 2.7333-1.548 0-2.924-1.3666-2.924-2.7333 0-1.5375 1.376-2.7333 2.924-2.7333 1.72 0 2.924 1.1958 2.924 2.7333Zm-18.06-.1708c3.612 0 6.536-3.0751 6.536-7.3459s-2.924-7.3458-6.536-7.3458c-3.784 0-6.536 3.075-6.536 7.3458 0 4.2708 2.752 7.3459 6.536 7.3459Zm.688 3.4166c-2.924 0-5.676-1.3666-7.052-3.4166h-.172v2.7333h-3.612V15.7834h3.784v9.3959l-.172 2.7333h.172c1.376-2.05 3.956-3.4167 7.052-3.4167 5.332 0 9.804 4.7833 9.804 10.7625-.172 5.9792-4.472 10.7625-9.804 10.7625ZM95.288 32.8668h11.696c-.172-2.7334-2.408-4.9542-5.848-4.9542-2.924 0-5.16 1.8792-5.848 4.9542Zm6.192 13.1541c-6.02 0-10.32-4.6125-10.32-10.7625 0-6.15 4.3-10.7625 10.148-10.7625 6.02 0 9.976 4.1 9.976 11.1042v.3417H95.288c.172 3.9291 3.096 6.6625 6.536 6.6625 2.408 0 4.3-1.1959 5.676-3.5876l3.44 1.7084c-1.892 3.2458-5.332 5.2958-9.46 5.2958ZM90.644 25.1793l-6.536 20.3291h-3.956l-5.16-15.5458-4.988 15.5458h-3.956L59.34 25.1793h3.956l4.472 15.3749 4.988-15.3749h3.956L81.7 40.5542l4.472-15.3749h4.472Z" fill="#5F6368"/>
</svg>