<svg xmlns="http://www.w3.org/2000/svg" id="_&#x30EC;&#x30A4;&#x30E4;&#x30FC;_2" viewBox="0 0 158 158"><defs><style>.cls-1{fill:none;}.cls-2{fill:#231815;}</style></defs><g id="_&#x30EC;&#x30A4;&#x30E4;&#x30FC;_1-2"><g><rect class="cls-1" width="158" height="158"></rect><path class="cls-2" d="M125.55,109.43c-.08-.13-.23-.17-.4-.15-1.08,.13-1.47,1.7-2.14,2.42-.12,.08-.27,.1-.41,.16-.11,.02-.19,.09-.31,.13-.5,.25-.98,.59-1.14,1.14-.15,.41-.25,.89-.61,1.19-.58,.52-1.47,.41-2.09,.97-.35,.32-.57,.7-.72,1.12-.09,.32-.15,.64-.37,.89-.56,.62-1.49,.5-2.14,.91-.59,.39-.64,.99-1.11,1.38-.12,.14-.29,.18-.43,.3h-.19c-.47,0-.9-.09-1.34-.12-.16-.01-.45-.07-.58,0-.65-.01-1.17,.46-1.61,.91-.16,.17-.33,.39-.53,.59-.15,.09-.29,.09-.42,.19-.2,0-.42,0-.61-.04-.42-.1-.78-.22-1.22-.26-.07,0-.21-.03-.27,0-.12,0-.19,0-.28,.04-.42,0-.85,.16-1.16,.38-.16,.14-.32,.24-.49,.37-.12,.1-.27,.18-.37,.19-.1,.03-.18,.06-.24,.06-.62,0-.98-.28-1.44-.58-.45-.29-.98-.53-1.55-.56-.13,0-.35-.03-.46,.03-.59,0-1.21,.3-1.65,.57-.47,.29-.87,.82-1.47,.76-.47-.05-.68-.51-.97-.84-.32-.35-.56-.55-.91-.81-.1-.05-.21-.13-.29-.2-.13-.02-.3-.01-.44-.02-.14-.03-.43-.08-.55,0-.13,0-.25-.03-.39,.01-.59,0-1.1,.43-1.59,.72-.21,.1-.44,.23-.7,.19-.71-.04-.95-.96-1.3-1.43-.19-.26-.44-.49-.67-.68-.34-.29-.71-.5-.85-.96-.18-.6,.16-1.57,.28-2.18,.04-.34,.11-.72,.14-1.1,.04-.63-.03-1.19-.14-1.74-.07-.24-.09-.48-.13-.72-.06-.3-.14-.58-.19-.88-.07-.27-.08-.55-.18-.81-.2-.6-.49-1.18-.77-1.76-.12-.31-.33-.72-.3-1.07,.01-.4,.37-.72,.75-.82,.51-.18,1.13-.22,1.72-.14,.31,.03,.63,.07,.9,.18,1.03,.39,1.83,1.39,2.29,2.34,.16,.35,.32,.71,.47,1.06,.19,.56,.34,1.12,.52,1.65,.05,.16,.09,.32,.17,.47,.07,.12,.18,.26,.32,.26s.25-.1,.33-.16c.1-.11,.19-.28,.26-.42,.2-.3,.36-.63,.54-.92,.34-.53,.69-1.06,.9-1.71,.21-.59,.09-2,.93-2.08,.3-.02,.55,.07,.79,.2,.68,.35,1.31,1.05,1.87,1.64,.96,1.05,1.8,2.11,2.57,3.26,.16,.21,.28,.47,.45,.69,.13,.23,.35,.44,.54,.68,.14,.18,.28,.38,.43,.54,.14,.2,.24,.39,.43,.52,.27,.26,1.66,1.52,1.9,.74,.2-.54-.15-1.27-.25-1.8-.1-.49-.1-1.02-.15-1.51-.04-.4-.08-.8-.14-1.19,.03-.1,.03-.2,.03-.31,0-.15,0-.33-.03-.47,.03-.28,.03-.57,.04-.87,.04-.41,.13-.86,.16-1.32,0-.41,0-.86,0-1.3,.03-.53,.06-1.01,.11-1.53,0-.57-.05-1.16-.03-1.75,.03-.26,.03-.53,.05-.78,.02-.16,.12-.37,.09-.55-.02-.16-.07-.36-.11-.53-.05-.32-.08-.64-.14-.92-.13-1.08-.36-2.14-.77-3.1-.2-.42-.46-.82-.76-1.22-.28-.4-.65-.89-1.07-1.19-.52-.37-1.09-.57-1.7-.8-.88-.33-1.87-.54-2.85-.71-.53-.07-1.12-.07-1.62-.25-.43-.13-.8-.42-1.19-.76-.35-.28-.67-.54-.99-.84-.25-.22-.48-.46-.73-.71-.24-.2-.49-.41-.69-.63-.26-.18-.55-.41-.7-.7-.15-.25-.21-.55-.26-.84-.07-.44-.02-.89,.16-1.27,.27-.48,.83-.84,1.27-1.17,.61-.45,1.25-.92,1.8-1.48,.29-.28,.59-.57,.88-.85,.26-.22,.52-.47,.77-.69,.19-.25,.42-.48,.63-.71,.2-.19,.43-.42,.64-.65,.65-.84,1.31-1.72,1.88-2.63,.23-.43,.48-.8,.72-1.22,.08-.12,.12-.34,.19-.47,.08-.1,.19-.24,.25-.36,.19-.42,.37-.89,.56-1.35,.5-1.16,.78-2.45,.95-3.81,.07-.6,.14-1.26,.14-1.95,0-.44-.04-.85-.07-1.26-.07-.63-.03-1.27-.16-1.86-.31-1.13-.57-2.24-.73-3.42-.1-.48-.05-1.04-.15-1.53-.07-.36-.17-.68-.23-1.01-.12-.44-.27-.92-.17-1.43,.22-1.08,1.15-2.12,1.83-2.97,.34-.43,.67-.87,.96-1.28,.27-.39,.63-.74,.76-1.23,.12-.5-.25-.78-.53-1.14-.18-.26-.34-.71-.22-1.05,.15-.56,.47-1.03,.69-1.57,.33-.85,.66-1.69,1-2.52,.59-1.51,1.02-3.08,1.5-4.66,.08-.18,.14-.36,.23-.55,.12-.36,.21-.73,.33-1.09,.1-.65,.23-1.24,.33-1.87,.02-.13,.02-.27,.02-.41,.07-.14,.1-.24,.13-.36,.05-.19,.07-.38,.11-.57,.04-.43,0-.87,0-1.28,0-.32,0-.67,.03-1-.03-.39-.08-.76-.09-1.17-.08-1.01-.12-2.05-.45-2.96-.26-.69-.58-1.33-.91-1.99-.24-.52-.57-1.05-.66-1.63-.2-.96,.19-1.82,.27-2.68,.08-.88-.16-1.8-.34-2.55-.27-.87-.73-1.58-1.28-2.3-.5-.63-.94-1.15-1.63-1.57-.38-.24-.78-.44-1.19-.66-.36-.16-1.17-.45-1.3-.87-.31-.78,.99-2.16,1.39-2.75,.19-.27,.38-.54,.53-.83,.08-.13,.15-.3,.21-.46,.14-.13,.24-.28,.36-.41,.23-.31,.43-.75,.49-1.15,.04-.37-.04-.68-.12-.98-.26-.94-.88-1.62-1.59-2.34-.22-.22-.45-.52-.7-.73-.29-.25-.59-.43-.88-.63-.28-.18-.55-.36-.8-.52-.12-.05-.24-.12-.36-.15-.35-.18-.68-.34-1.03-.44-.18-.05-.36-.07-.53-.11-.33-.08-.65-.18-.97-.26-.3-.03-.56-.07-.83-.09-.56-.1-1.08-.22-1.65-.28-.37,0-.73-.02-1.09-.02-.13,.02-.24,.03-.35,.04-.23,0-.63-.04-.8,.04-.15,0-.35-.04-.48,0-.14,0-.34,0-.46,.03-.06,.01-.1,.02-.16,.02-.11,0-.25,0-.33,.01-.18,0-.42,0-.58,.08-.04,.01-.11,.01-.16,.05-.12,0-.25,0-.35,.04-.06,.01-.1,.01-.15,.03-.06,0-.13,0-.19,.03-.11,0-.25,0-.34,.04-.09,.02-.13,.02-.2,.02-.1,0-.16,.03-.26,.03-.14,0-.33,0-.45,.09-.21,0-.74,.11-.9,.18-.06,0-.15,0-.23,.02-.13,0-.34,.03-.43,.08-.28,0-.53,.1-.77,.16-.38,.11-.76,.25-1.16,.36-.14,.07-.28,.12-.45,.15-.2,.07-.42,.11-.62,.18-.46,.15-.93,.31-1.41,.46-.24,.08-.47,.15-.71,.23-1.17,.46-2.27,1.06-3.34,1.68-.62,.33-1.27,.66-1.83,1.16-.47,.39-1.03,.8-1.39,1.32-.21,.27-.39,.53-.57,.82-.12,.18-.25,.38-.45,.55,0,.62-.56,1.25-.16,1.9,.28,.48,.96,.56,1.47,.71,.26,.06,.52,.21,.76,.25,1.14,.49,2.29,.8,3.27,1.52,.41,.31,.77,.7,1.1,1.09,.33,.38,.67,.8,.79,1.3,.07,.31,.03,.59-.14,.84-.1,.17-.32,.32-.49,.44-.53,.31-1.07,.57-1.64,.82-.21,.09-.45,.2-.68,.27-.5,.24-.98,.57-1.51,.8-.57,.19-1.21,.31-1.64,.78-.89,1.06,2.26,2.54,1.52,3.86-.23,.39-.73,.6-1.1,.83-.58,.33-1.17,.61-1.76,.89-.64,.32-1.29,.61-1.88,.94-.47,.24-.96,.52-1.43,.74-.85,.39-1.72,.73-2.54,1.15-.34,.14-.7,.28-1.06,.4-.23,.04-.44,.1-.66,.13-.06,0-.1,.02-.18,.03-.05,.03-.15,.03-.22,.03-.06,0-.13,.02-.2,.02-.1,.02-.16,.02-.23,.02-.09,0-.16,0-.24,.03-.07,0-.16,.01-.27,.03-.18,0-.39-.02-.59-.03-.24,0-.58-.08-.8,0-.05,.01-.1,.03-.19,.03-.07,.01-.14,.03-.25,.03-.09,0-.16,0-.24,0-.09,.02-.17,.02-.27,.03-.08,.01-.12,.01-.19,.01s-.12,.03-.2,.03c-.07,0-.15,.03-.23,.03-.1,0-.23,.03-.31,.06-.04,.01-.1,.01-.17,.02-.1,0-.16,0-.26,.03-.07,0-.12,.01-.18,.01-.12,0-.24,0-.32,.03-.07,.02-.13,.02-.21,.02-.05,.02-.12,.02-.19,.03-.06,0-.12,0-.2,0-.12,0-.26,0-.34,.08-.15-.01-.35,.02-.46,.08-.14,0-.31,.02-.41,.07-.18,0-.33,.04-.48,.06-.53,.11-1,.28-1.46,.41-.92,.24-1.83,.48-2.69,.75-.3,.08-.6,.2-.91,.27-.18,0-.33-.01-.51-.01-.72-.19-1.43-.36-2.17-.51-.27-.05-.73-.22-1-.05-.29,0-.5-.23-.76-.3-.72-.2-1.5-.16-2.27-.24-.23-.03-.7-.11-.87-.03-.12,0-.31-.02-.39,.05h-.24c-.12,0-.18,.02-.27,.02-.21,0-.52-.04-.72,.04-.08,0-.21-.02-.27,0-.07,.01-.12,.01-.17,.02-.2,0-.37,.06-.56,.11-.33,.08-.66,.18-.97,.31-.44,.11-.87,.2-1.24,.38-.43,.2-.73,.48-1.07,.76-.22,.2-.45,.39-.69,.58-.51,.56-.71,1.31-.8,2.1-.07,.64-.11,1.34,.07,1.91,.2,.65,.84,1.44,1.38,1.86,.24,.19,.49,.35,.76,.52,.2,.17,.41,.37,.63,.58,.28,.29,.57,.59,.8,.91,.26,.34,.49,.82,.9,.98,1.21,.52,1.17-2.85,2.57-2.76,.56,.03,.83,.57,1.08,.98,.12,.17,.24,.32,.37,.49,.14,.22,.27,.63,.64,.65,.3,0,.49-.34,.66-.53,.37-.43,1.19-1.63,1.88-1.25,.63,.38,.81,2.52,1.42,2.61,.43,.06,.73-.5,1.01-.72,.38-.32,.81-.77,1.26-.89,.29-.08,.52,.04,.8,.07-.02,.07-.02,.14-.02,.23-.06,0-.05,0-.05,.04,.7,.01,.94,2.95,1.63,3.02,.81,.14,1.17-1.71,2.14-1.64,1.08,.03,1.54,2.25,2.43,2.09,.82-.17,1.08-1.91,2.11-1.79,.5,.04,.93,.59,1.36,.88,.22,.2,.45,.37,.66,.52,.57,.39,.97,.56,.94,1.37,0,.31-.09,.67-.33,.83-.13,.07-.23,.1-.35,.16-.31,0-.58-.16-.88-.11-.45,.09-.56,.84-.8,1.15-.11,.17-.24,.18-.39,.27-.17,0-.32,0-.47-.07-.26-.08-.71-.47-1.01-.32-.5,.29-.4,1.33-1.09,1.36-.69,.01-1.16-1.34-1.82-1.04-.44,.21-.83,1.19-1.12,1.57-.07,.19-.23,.38-.43,.42-.78,.25-1.37-1.24-1.99-.98-.1,.06-.19,.19-.27,.29-.32,.42-.56,1.42-1.07,1.6-.82,.25-1.45-1.34-2.25-1.11-.6,.2-1.09,2.21-1.39,2.76-.21,.37-.61,.65-.72,1.04-.07,.36-.01,.69,.12,.98,.24,.49,.62,.82,1.03,1.21,.44,.46,.89,.82,1.47,1.06,.65,.31,1.39,.28,2.14,.19,.7-.08,1.37-.16,2.01-.37,.38-.1,.71-.26,1.05-.39,.39-.14,.82-.25,1.19-.37,.55-.14,1.1-.3,1.64-.45,.57-.12,1.16-.22,1.75-.35,.69-.16,1.46-.19,2.19-.31,.5-.06,1.15-.13,1.68-.06,.2,.02,.39,.12,.53,.26,.45,.52-.14,2.74-.26,3.41-.07,.48-.14,1.01-.24,1.47-.24,.95-.74,1.45-1.37,2.19-.78,.87-1.64,1.68-2.5,2.51-.77,.77-1.52,1.65-2.18,2.5-.14,.14-.28,.28-.43,.47-.19,.21-.35,.41-.53,.61-.21,.25-.45,.5-.65,.75-.72,.86-1.37,1.77-1.95,2.7-.29,.5-.58,1-.84,1.49-.21,.4-.39,.77-.6,1.17-.19,.35-.41,.71-.6,1.04-.2,.36-.63,1.2-1.08,1.3-.54,.14-.76-.53-1.13-.75-.14-.07-.27-.1-.41-.14-.3-.1-.55-.18-.78-.35-.27-.2-.45-.52-.59-.77-.18-.31-.37-.58-.49-.91-.26-.59-.49-1.64-.38-2.38,.04-.28,.11-.56,.15-.82,.08-.68,.12-1.44,.84-1.72,.26-.1,.66-.11,.98-.09,.69,.1,1.66,.45,1.8-.52,.06-.42-.07-.83-.12-1.2-.08-.71-.18-1.43-.42-2.08-.11-.33-.33-.62-.47-.93-.31-.71-.61-1.4-.92-2.1-.19-.33-.34-.63-.5-.96-.47-1.03-.88-2.08-1.44-3.07-.36-.66-.71-1.37-1.04-2.03-.2-.32-.36-.67-.65-.92-.09-.11-.21-.18-.34-.22-.36-.09-.73-.1-1.09-.16-.88-.19-1.73-.39-2.65-.44-.17-.02-.4-.06-.52,0-.17,0-.34-.04-.46,.02-.13,0-.3-.02-.4,.01-.17,0-.38-.03-.51,.02-.2,0-.41,.08-.59,.12-.97,.24-1.82,.86-2.39,1.72-.27,.42-.51,1.1-1.06,1.24-.4,.09-.93-.14-1.27-.26-.15-.03-.31-.07-.45-.1-.64-.16-1.29-.17-2-.17-.2,0-.62-.07-.77,.02-.16,0-.31,0-.41,.05-.11,0-.18,0-.27,0-.14,0-.31,.04-.42,.1-.06,0-.12,0-.21,.01-.13,0-.27,0-.38,.06-.03,0-.09,.03-.16,.03-.38,0-.77,.12-1.12,.24-.25,.06-.47,.13-.72,.21-1,.32-2.07,.81-2.81,1.64-.39,.42-.54,.97-.74,1.51-.19,.45-.32,1.21-.06,1.64,.25,.47,.97,.59,1.41,.78,.09,.05,.2,.13,.3,.2,.2,.09,.37,.19,.57,.27,.15,.06,.29,.16,.43,.22,.34,.11,.66,.23,.96,.37,.61,.34,1.26,.65,1.9,.98,.26,.17,.53,.32,.79,.47,.3,.18,.59,.28,.89,.46,.36,.18,.69,.38,1.01,.55,.63,.35,1.71,.85,1.71,1.71,0,.23-.05,.39-.18,.52-.13,.14-.29,.14-.42,.18-.2,0-.41,0-.64,0-.17,0-.48-.09-.65,0-.42,0-.83,.18-1.12,.45-1.01,.98,.4,1.85,.99,2.54,.36,.41,.65,.84,1.04,1.23,.21,.19,.41,.38,.65,.53,.71,.6,1.26,.87,2.27,.86,.3,0,.6-.09,.92-.14,.42-.03,.85-.05,1.31-.03,.53,0,1.05-.02,1.5,.12,.76,.3,1.1,.99,1.46,1.63,.18,.33,.36,.66,.54,.96,.16,.41,.52,1.01,.44,1.5-.04,.21-.12,.41-.21,.56-.14,.27-.44,.59-.36,.96,.09,.33,.28,.57,.46,.86,.25,.39,.51,.72,.77,1.06,.2,.32,.3,.67,.56,.93,.24,.24,.74,.2,.91,.57,.17,.31-.5,.38-.5,.82,0,.51,.53,1.39,.82,1.79,.35,.54,1.02,.9,1.68,.95,.82,.06,2.09-.4,2.46,.52,.16,.42,.08,1.07,.08,1.57-.03,.8,.12,1.51,.04,2.3-.07,.67-.24,1.32-.25,2.06,0,.16,0,.34,0,.5,.06,.41,.26,.71,.42,1.04,.16,.35,.34,.67,.44,1.06,.15,.56,.25,1.13,.38,1.71,.17,.63,.32,1.24,.49,1.86,.63,2.16,1.42,4.19,2.38,6.16,.5,1,1.09,1.98,1.68,2.91,.15,.24,.29,.5,.41,.73,.21,.28,.41,.56,.61,.85,.71,.98,1.56,1.95,2.38,2.87,.3,.32,.63,.58,.91,.86,.36,.42,.73,.8,1.1,1.18,.35,.35,.88,.78,.97,1.29,.05,.21-.01,.47-.13,.61-.23,.29-.58,.45-.86,.61-.4,.23-.98,.72-1.26,1.1-.66,.9-.98,1.96-1.43,2.97-.33,.75-.66,1.54-1.04,2.26-.18,.33-.34,.67-.53,1.02-.24,.52-.65,1.86-1.19,2.09-.67,.26-1.11-.44-1.5-.82-.18-.18-.37-.3-.59-.4-.43-.16-.97-.1-1.39,0-.98,.26-1.81,.92-2.5,1.71-.22,.29-.48,.58-.67,.9-.41,.66-.75,1.35-1.06,2.07-.2,.44-.44,.94-.46,1.45,0,.19,.04,.41,.16,.55,.28,.39,.84,.26,1.3,.27,.25,.01,.45,.12,.62,.24,.16,.16,.25,.37,.33,.61,.1,.25,.26,.57,.24,.89-.03,.61-.33,1.03-.66,1.48-.85,1.24-2.09,2.33-3.39,2.97-.18,.08-.33,.15-.47,.24-.2,.03-.39,.08-.59,.14-.04,.03-.11,.03-.15,.03-.15,0-.34-.03-.46,.02-.89,0-1.67-.36-2.42-.64-1.26-.49-2.29-.78-3.23-1.79-.24-.26-.45-.53-.61-.84-.35-.59-.58-1.5-1.33-1.75-.09-.05-.23-.06-.31-.05-.24,0-.53,.14-.7,.31-.17,.16-.34,.33-.37,.57-.08,.48,.15,.87,.29,1.23,.18,.48,.36,.96,.61,1.39,.1,.15,.18,.29,.27,.44,.06,.1,.07,.22,.12,.34,.09,.16,.18,.35,.27,.49,.27,.48,.6,.9,.98,1.32,.21,.25,.42,.52,.64,.77,.34,.39,.75,.71,1.13,1.03,.18,.17,.39,.34,.55,.49,.26,.25,.58,.43,.88,.59,.35,.22,.8,.43,1.21,.55,.47,.12,1.03,.22,1.36,.54,.29,.27,.44,.57,.41,.97-.02,.26-.05,.54,.03,.78,.23,.58,1.64,1.47,2.22,1.59,.32,.08,.75,.04,1.06-.02,.48-.07,.93-.37,1.3-.65,.87-.64,1.45-1.45,1.88-2.36,.18-.39,.33-.77,.49-1.19,.24-.51,.61-1.11,1.05-1.52,.73-.71,1.59-1.21,2.46-1.67,.15-.08,.29-.14,.47-.22,.59-.35,1.14-.83,1.72-1.23,.34-.22,.67-.49,.99-.76,.39-.33,.81-.64,1.16-1.06,.56-.65,1.03-1.43,1.46-2.17,.2-.36,.39-.78,.67-1.11,.2-.25,.44-.52,.67-.71,.11-.05,.25-.13,.35-.17,.35-.24,.76-.63,.96-.96,.35-.61,.32-1.38,.5-2.05,.27-.98,1.21-2.02,1.95-2.75,.15-.12,.45-.16,.64-.26,1.2-.49,2.5-.66,3.81-.95,.51-.13,1.12-.3,1.69-.19,.75,.12,1.4,.53,2.09,.77,.77,.32,1.61,.56,2.39,.93,.15,.05,.27,.08,.43,.13,.42,.29,.82,.59,1.25,.88,.66,.43,1.3,.85,1.91,1.3,.62,.41,1.81,1.14,1.94,1.92,.13,.72-.46,1.24-.85,1.7-.16,.2-.26,.41-.36,.62-.06,.1-.11,.2-.15,.27-.51,1.23,.03,2.6,.7,3.5,.14,.17,.33,.32,.46,.45,.35,.4,.7,.7,1.15,.92,.33,.16,.73,.13,.76-.33,.03-.51-.29-1.69,.38-1.84,.57-.11,.93,.17,1.36,.49,.07,.07,.18,.21,.28,.23,.18,.03,.41-.12,.51-.06,.21,.09,.15,.44,.49,.36,.59-.12-.04-1.66,.97-1.89,.68-.17,1.65,.23,2.26,.44,1.51,.52,3.53,1.33,4.05,3.01,.1,.25,.18,.58,.13,.87-.12,.8-.44,1.59-.98,2.16-.36,.41-.74,.73-1.13,1.1-.27,.27-.54,.52-.81,.76-.36,.28-.72,.56-1.07,.85-.65,.58-1.34,1.25-.57,2.12,.22,.23,.56,.41,.91,.4,.58,0,1.3-.32,1.83-.5,.39-.14,.8-.27,1.19-.41,.49-.2,.97-.39,1.42-.58,.5-.19,1.01-.36,1.47-.63,.36-.23,.72-.59,.94-.96,.4-.63,.54-1.38,.82-2.07,.13-.31,.26-.66,.54-.88,.44-.4,1.07-.41,1.67-.27,.47,.15,.85,.37,1.3,0,.39-.31,.67-1.17,.82-1.63,.2-.55,.53-1.06,.53-1.68,0-.86-1.08-1.24-1.66-1.56-.31-.21-.6-.4-.9-.6-.78-.47-1.63-1.1-2.26-1.75-.2-.21-.41-.43-.61-.64-.1-.12-.21-.21-.31-.33-.37-.38-.69-.78-1.02-1.15-.44-.49-.94-.94-1.42-1.39-.55-.54-1.1-1.09-1.7-1.57-.46-.37-.93-.72-1.45-.97-.39-.19-1.04-.41-1.36-.71-.16-.15-.23-.39-.11-.56,.34-.49,1.83-.34,2.47-.41,.98-.14,1.97-.18,2.93-.29,.38-.08,.75-.2,1.14-.26,1.01-.18,1.95-.41,2.93-.64,.47-.11,.92-.27,1.39-.37,.3-.05,.62-.11,.92-.15,.57-.14,1.13-.27,1.72-.42,.19-.06,.39-.13,.59-.19,.15-.06,.34-.14,.49-.2,.14-.02,.3-.04,.45-.05,.22-.05,.45-.1,.65-.18,1.11-.35,2.17-.8,3.23-1.27,.27-.09,.56-.18,.83-.31,.19-.08,.34-.14,.53-.26,.23-.09,.47-.13,.71-.26,.54-.27,1.09-.54,1.65-.8,.34-.23,.66-.46,1.03-.68,.58-.35,1.19-.74,1.79-1.13,.43-.35,.82-.64,1.25-.99,.77-.57,1.56-1.16,2.27-1.86,.42-.34,.72-.75,1.09-1.13,.27-.26,.54-.55,.8-.8,.21-.25,.36-.5,.55-.75,.31-.36,.59-.77,.88-1.14,.12-.26,.26-.51,.39-.75,.19-.43,.4-.87,.61-1.26,.18-.4,.36-.77,.51-1.19,.09-.45,.23-.93,.33-1.43,.04-.15,.09-.31,.12-.49,.11-.37,.39-1.3,.21-1.7ZM52.73,71.33c-.13,.14-.28,.16-.45,.24-.05,0-.12,.03-.17,.03-.07,0-.22,0-.29,.03-.16,0-.41-.05-.54,.03-.06,0-.15,.01-.23,.02-.65,0-1.58-.18-1.57-.96,0-.27,.1-.42,.29-.57,.27-.23,.61-.17,.95-.27,.48,0,.96,0,1.38,.12,.5,.17,1.15,.79,.62,1.33Zm-12.63-10.21c.05-.21,.13-.42,.24-.59,.39-.8,.78-1.19,1.65-1.4,.2-.03,.39-.08,.58-.11,.15-.02,.3-.04,.47-.05,.4,0,.8,0,1.19,.05,.56,.08,1.13,.2,1.71,.25,.61,.07,1.25,.01,1.75,.34,.34,.2,.56,.59,.71,.94,.13,.27,.27,.51,.43,.81,.28,.62,.54,1.21,.85,1.82,.27,.59,.65,1.17,.9,1.76,.19,.48,.37,.93,.56,1.4,.26,.55,1.04,1.61,.78,2.27-.12,.32-.39,.31-.65,.45-.04,0-.1,.01-.15,.02-.15,0-.34-.02-.47,.03-.76,0-1.92,.1-2.36-.39-.52-.56-.38-1.37-.53-2.1-.14-.66-.94-1.43-1.68-1.35-.46,.07-.8,.32-1.19,.54-.11,.03-.23,.09-.35,.13-.29,0-.53-.04-.74-.17-.42-.27-.84-.8-1.21-1.13-.47-.44-.94-.9-1.41-1.36-.34-.34-.74-.69-.96-1.11-.15-.3-.17-.7-.11-1.05Zm-10.24,1.54c.1-.3,.4-.47,.68-.61,.76-.33,1.53-.41,2.38-.52,.26-.04,.52-.07,.76-.1,1.14,0,2.28,.07,3.3,.34,.39,.14,.75,.32,1.11,.45,.39,.15,.84,.3,1.18,.53,.4,.27,.72,.66,1.11,.95,.19,.16,.36,.29,.56,.43,.39,.34,.74,.76,1.11,1.13,.43,.54,1.1,.93,1.35,1.57,.22,.46,.14,1.11,.26,1.61,.09,.4,.28,.71,.42,1.08,.07,.23,.16,.47,.25,.68,.12,.28,.28,.64,.34,.93,0,.14-.02,.3-.08,.38-.17,.18-.49,.1-.7,.04-.15-.09-.3-.15-.48-.24-.25-.13-.53-.27-.77-.4-.31-.21-.59-.43-.91-.63-.22-.14-.46-.29-.7-.44-.29-.18-.57-.39-.86-.56-.46-.3-.93-.59-1.39-.87-.54-.4-1.05-.81-1.63-1.12-.71-.43-1.47-.82-2.2-1.24-.92-.58-1.81-1.12-2.73-1.63-.22-.14-.45-.23-.69-.35-.43-.2-1.85-.72-1.65-1.42Zm6.19,7.08c-.6-.3-1.19-.6-1.8-.92-.42-.2-.87-.38-1.31-.61-.66-.33-1.29-.72-1.97-1.02-.46-.19-.92-.32-1.37-.5-.21-.08-.43-.19-.63-.3-.41-.14-.86-.22-1.19-.51-.11-.12-.24-.24-.27-.38-.17-.5,.1-1.27,.49-1.59,.15-.13,.3-.17,.48-.23,.91,.06,1.84,.66,2.59,1.09,.31,.16,.63,.32,.93,.48,.63,.32,1.21,.63,1.8,.96,.24,.16,.47,.31,.69,.45,.51,.27,1.02,.56,1.5,.89,.84,.54,1.62,1.19,2.45,1.76,.79,.54,1.59,1.05,2.4,1.61,.53,.37,1.06,.74,1.59,1.12,.56,.37,1.54,.77,1.51,1.63-.04,.27-.16,.51-.36,.71-.13,.11-.27,.15-.42,.25-.49-.01-.76-.24-1.09-.45-.26-.18-.5-.35-.72-.55-.14-.13-.25-.22-.38-.31-.88-.65-1.7-1.38-2.56-2.08-.47-.36-.96-.65-1.48-.95-.3-.15-.58-.38-.88-.56Zm3.18,3.07c-.09,0-.09,.08-.21,.08-.21-.05-.02-.26,.05-.29,.07,.06,.12,.13,.15,.21Zm10.51,1.59c-.13,.23-.24,.45-.36,.66-.18,.37-.36,.72-.64,1-.35,.36-.76,.59-1.16,.83-.26,.17-.52,.35-.79,.45-.22,.04-.44,.15-.64,.22-.21,.07-.44,.19-.64,.27-.19,.06-.37,.13-.56,.19-.06,0-.11,.01-.2,.01-.69,0-1.16-.16-1.69-.41-.41-.19-.76-.4-1.18-.54-.31-.08-.65-.09-1.01-.09-.2-.02-.46-.06-.63,0-.11,0-.28,0-.38,.03-.06,.01-.1,.01-.16,.02-.3,0-.57,.1-.83,.18-.14,.03-.28,.06-.41,.09-.07,.01-.1,.01-.16,.03-.11,0-.25-.01-.33,.02-.36,0-.79-.07-1.06-.26-.25-.16-.51-.34-.73-.59-.2-.31-.42-.58-.65-.87-.31-.38-.86-1-.98-1.45-.07-.28,.12-.5,.34-.59,.81-.37,1.67,.15,2.29,.56,.23,.14,.51,.37,.82,.34,.63-.05-.11-1.11,.48-1.27,.2-.05,.41,0,.53,.11,.41,.21,.77,.48,1.12,.75,.36,.28,.74,.58,1.1,.91,.48,.43,1,1.06,1.66,1.18,.49,.11,.9-.2,1.23-.49,.33-.31,.54-.66,.84-.98,.2-.21,.41-.41,.6-.6,.38-.39,1.01-.85,1.02-1.42,0-.46-.31-.81-.5-1.15-.58-1.11-1.63-2.53-1.19-3.96,.14-.49,.36-.96,.83-1.23,.11-.07,.23-.07,.35-.14,1.28,.07,.94,1.17,1.19,2.02,.13,.57,.4,1.1,.64,1.64,.5,1.08,1.39,2.05,1.74,3.19,.1,.27,.19,1.04,.1,1.34Zm37.96,43.93c-.37,.85-.6,1.68-1.08,2.45-.16,.3-.38,.67-.69,.8-.67,.36-1.08-.56-1.36-.99-.59-.94-1.21-1.92-1.79-2.9-.27-.46-.52-.92-.78-1.37-1.43-2.25-2.67-4.57-4-6.84-1.23-2.09-2.51-4.22-3.71-6.33-.12-.19-.23-.33-.33-.52-.27-.49-.54-.96-.81-1.46-.19-.3-.38-.6-.55-.94-.28-.49-.85-1.27-.72-1.91,.1-.64,1.06-.73,1.58-.77,.2,0,.33,0,.5-.04,1.63,.03,2.59,.61,3.6,1.76,.24,.31,.51,.59,.69,.91,.7,1.16,1.16,2.43,2.02,3.52,.27,.36,.57,.73,.92,1.04,.26,.22,.53,.45,.8,.66,.43,.38,.88,.73,1.35,1.06,.31,.19,.61,.36,.91,.56,.62,.46,1.22,1,1.78,1.55,.54,.54,1.03,1.32,1.28,2.01,.08,.24,.16,.51,.22,.77,.7,2.09,1.03,4.87,.19,7.02Zm-2.67,9.86c-.15,.2-.3,.2-.47,.3-.41-.02-.78,0-1.18-.04-.52-.04-1.79-.23-1.91-.74-.14-.61,1.03-1.27,1.45-1.46,.15-.04,.31-.07,.47-.16,.67,.05,.9,.35,1.31,.79,.1,.08,.25,.12,.3,.26,.06,.14,.06,.33,.06,.46,.04,.19,.06,.44-.03,.59Zm16.97-69.59c-.32,.55-.72,.77-1.3,.94-.19,.07-.34,.09-.52,.15-.04,.01-.1,.04-.16,.05-.07,0-.12,0-.18,.01-.17,0-.56,.06-.68,.13-.08,.02-.16,.02-.26,.02-.06,.01-.12,.02-.17,.02-.07,.04-.13,.04-.21,.04-.06,.04-.13,.04-.21,.04-.07,0-.14,0-.25,.03-.18,0-.43,.02-.6,.12-.06,0-.1,0-.19,0-.05,0-.14,.02-.16,.02-.11,0-.21,.01-.3,.05-.07,.03-.12,.04-.18,.04s-.14,0-.18,.02c-.07,0-.13,0-.19,.02-.04,.01-.1,.01-.18,.03-.13,0-.33,.03-.42,.09-.09,0-.16,0-.23,.01-.07,0-.14,0-.21,.04-.07,0-.11,0-.19,0-.14,0-.33,.04-.46,.1-.05,0-.11,.01-.18,.03-.1,0-.23,0-.32,.03-.1,0-.21,.03-.29,.06-.06,0-.12,.01-.2,.02-.13-.01-.32,.01-.42,.07-.32,0-.6,.12-.89,.17-.2,.02-.36,.07-.54,.1-.12,0-.26,0-.34,.06-.04,.02-.12,.03-.16,.03-.13,0-.27,0-.38,.06-.17-.01-.4,.03-.54,.09-.22,0-.44,.1-.63,.12-.66,.16-1.26,.32-1.91,.5-.18,.06-.33,.11-.55,.18-.5,.13-1.01,.28-1.53,.41-.47,.15-.97,.26-1.4,.42-.87,.32-1.73,.64-2.59,.98-.37,.12-.78,.26-1.14,.38-.16,.06-.31,.09-.47,.15-.19,0-.38,0-.51-.14-.5-.35,.03-1.6,.19-2.03,.21-.61,.45-1.21,.7-1.79,.3-.78,.59-1.57,.88-2.34,.21-.55,.35-1.09,.57-1.61,.12-.22,.2-.46,.31-.65,.13-.36,.27-.7,.54-.97,.34-.33,.78-.37,1.24-.49,1.13-.28,2.36-.35,3.6-.5,.18-.02,.38-.07,.56-.08,.55-.06,1.1-.11,1.67-.13h.81c.4-.03,.81-.08,1.2-.08,.16-.01,.31,0,.45-.03,1.53,.03,3.07,.03,4.58,.08,.65,.04,1.28,.15,1.89,.26,.15,.03,.28,.04,.47,.06,.6,.13,1.21,.26,1.81,.4,.61,.15,2.27,.3,2.47,.93,.23,.68-1.13,2.69-1.5,3.3Zm6.22-19.39c-.28,.45-.7,1.07-.67,1.65,.01,.3,.06,.59,.13,.85,.13,.44,.34,.95,.17,1.39-.13,.33-.43,.46-.67,.7-.57,.51-.87,.94-.98,1.72-.07,.51,.04,1,.13,1.49,.08,.45,.23,1.03-.04,1.46-.32,.49-.93,.68-1.39,.95-.4,.2-.77,.54-1.02,.89-.28,.39-.43,.84-.5,1.34-.06,.45,0,.9-.3,1.21-.21,.21-.39,.21-.62,.37-.35-.04-.69-.04-1.03-.06-.64-.04-1.23-.16-1.84-.3-.54-.07-1.33-.18-1.64-.6-.23-.29-.26-.69-.26-1.08s0-.83,.14-1.14c.39-.73,1.16-.55,1.86-.46,.27,.02,.53,.04,.8,.05,.64-.05,1.31-.3,1.71-.78,.64-.73,.59-1.94,.45-2.86-.06-.43-.3-.97-.06-1.37,.26-.51,1.35-.68,1.86-.93,.55-.23,1.1-.72,1.37-1.29,.11-.21,.22-.48,.22-.77,.03-.77-.47-1.71-.9-2.27-.32-.41-.73-.73-.82-1.25-.05-.21,.04-.43,.15-.58,.26-.35,.67-.56,.99-.86,.36-.34,.6-.8,1-1.08,.09-.04,.18-.1,.27-.16,.61,.03,.71,.39,1.06,.79,.76,.91,1.12,1.83,.43,2.96Zm-12.94-14.75c.79,.05,1.22,.82,2.16,.85,.51,.02,1.03-.08,1.49-.2,.66-.18,1.18-.43,1.91-.13,.5,.21,.74,.73,1.06,1.11,.22,.27,.47,.51,.76,.65,.27,.13,.59,.22,.92,.25,.59,.09,1.24,.08,1.65,.53,.33,.4,.23,.93,.29,1.47,0,.35,.06,.69,.21,.99,.4,.65,1.06,.83,1.56,1.31,.6,.59,.96,1.7,.37,2.43-.14,.16-.3,.21-.47,.33-.72-.03-.98-.75-1.5-1.08-.33-.21-.67-.37-1.05-.49-.19-.04-.4-.05-.61-.1-.4-.08-.93-.03-1.15-.43-.2-.38-.05-.9-.04-1.29,.02-1.21-.55-2.38-1.64-2.76-.25-.09-.85-.28-1.11-.13-.44-.02-.83,.15-1.17,.3-.27,.13-.56,.23-.82,.36-.15,.05-.26,.12-.4,.16-.06,.02-.12,.02-.19,.04-1.13-.03-2.38-.9-2.66-1.99-.09-.33-.04-.77-.04-1.13,0-.54,0-.84,.46-1.04Zm-9.35,.85c.19-.21,.46-.36,.71-.49,.38-.2,.75-.36,1.15-.55,.3-.09,.63-.17,.95-.24,.45-.15,.84-.25,1.27-.33,.48-.08,1.03,.04,1.47-.11,.69,0,1.26,.08,1.75,.45,.64,.45,.84,1.9,.3,2.48-.13,.16-.28,.16-.38,.24-.58,0-.95-.24-1.42-.39-.57-.17-1.21-.33-1.86-.37-.16-.01-.43-.06-.6,0-.14,0-.28-.04-.39,0-.07,.02-.13,.02-.2,.02-.53,0-.95,.18-1.42,.27-.18,.03-.33,.08-.48,.12-.07,0-.19,.02-.24,.03-.2,0-.4,0-.54-.07-.51-.17-.36-.7-.06-1.05Zm-1.64,3.1c.27-.18,.61-.17,.92,0,.31,.21,.52,.58,.77,.86,.58,.64,1.47,1.38,2.44,1.33,1.21-.08,2.02-1.11,2.56-2.05,.15-.29,.3-.62,.57-.83,.17-.11,.31-.18,.47-.23,.2,0,.41,0,.58,.03,.46,.13,1.28,.57,1.07,1.2-.05,.21-.24,.4-.43,.55-.51,.45-1.08,.99-1.74,1.19-.49,.16-.99,.3-1.48,.47-.18,.06-.36,.1-.57,.19-.05,0-.09,0-.17,0-.18,0-.49-.07-.62,.02-.28,0-.68,.05-.9,.15-.05,0-.12,0-.16,.02-.12,0-.27-.01-.34,.05-.66,0-1.25-.07-1.74-.32-.26-.12-.55-.32-.76-.56-.39-.37-1.18-1.63-.47-2.09Zm-2.14,1.98c.19-.19,.39-.21,.6-.28,.58,.02,1.05,.55,.75,1.13-.16,.23-.37,.27-.57,.41-.17,0-.34,0-.46-.08-.51-.15-.71-.79-.32-1.18Zm-38.26,14.76c-.46,.11-.75-.6-.57-.99,.08-.13,.2-.19,.32-.26,.19,0,.35,.03,.49,.12,.39,.28,.2,1.03-.24,1.13Zm4.6-1.04c-.4,0-.63-.47-.41-.8,.07-.14,.22-.17,.36-.23,.79,.06,.69,.96,.05,1.03Zm4.88,.68c-.14,.2-.28,.22-.47,.32-.14,0-.3-.05-.42-.11-.35-.22-.44-.87-.17-1.18,.11-.1,.23-.13,.38-.19,.42,0,.88,.19,.87,.7-.01,.17-.07,.34-.19,.45Zm4.43,1.35c-.08,.15-.24,.18-.33,.26-.59,0-.91-.62-.53-1.06,.06-.08,.18-.11,.28-.17,.52,.03,.93,.49,.57,.96Zm4.19,.76c-.08,.19-.27,.25-.41,.37-.14,0-.27,0-.38-.08-.29-.14-.54-.78-.32-1.07,.09-.14,.25-.18,.41-.26,.15,.01,.27,.01,.39,.08,.37,.15,.52,.62,.31,.96Zm4.16,.08c-.08,.08-.19,.09-.28,.11-.38,0-.72-.23-.68-.68,.01-.07,.03-.15,.09-.22,.11-.17,.29-.17,.46-.25,.14,.03,.32,.06,.41,.14,.27,.21,.25,.69,0,.89Zm-.56,4.58c.21,.02,.53,.17,.35,.46-.08,.07-.14,.12-.2,.18-.46,0-.46-.4-.15-.64Zm-2.6,1.35c.04-.08,.09-.1,.16-.14,.3,.05,.37,.41,.06,.44-.2,.05-.3-.15-.22-.3Zm-3.2,.63c.05-.09,.13-.11,.19-.14,.3,.03,.67,.27,.37,.58-.07,.06-.14,.08-.19,.14-.39,0-.6-.28-.37-.58Zm7.06,3.77c-.16,0-.37-.03-.49,.02-.1,0-.21,0-.27,.03-.08,0-.17,.03-.23,.04-.07,.02-.16,.02-.25,.03-.08,0-.23-.01-.32,.01-.09,.02-.18,.02-.27,.03-.07,0-.12,0-.2,0-.14,0-.28,0-.38,.07-.05,0-.13,.01-.17,.01-.14,0-.34,.02-.46,.09-.08,.03-.16,.03-.22,.03-.06,0-.13,.02-.18,.04-.19-.02-.35,.02-.52,.06-.49,.07-.96,.26-1.42,.41-.92,.26-1.86,.5-2.78,.79-.33,.08-.64,.25-.97,.34-.67,.19-1.33,.38-2.02,.55-.14,0-.28,.03-.4,.09-.06,.04-.13,.04-.22,.04-.06,0-.12,0-.17,.03-.42-.02-.8-.02-1.16-.12-.83-.2-2.64-1.25-1.87-2.35,.32-.46,.92-.51,1.44-.63,.25-.08,.51-.15,.77-.21,1.22-.36,2.53-.56,3.82-.82,1.25-.27,2.5-.65,3.77-.93,1.41-.35,2.77-.91,4.08-1.48,.31-.14,.6-.24,.9-.39,.83-.37,1.66-.86,2.48-1.35,1.03-.64,2.09-1.25,3.12-1.9,.46-.33,.91-.67,1.34-.97,.38-.26,.8-.49,1.18-.75,.28-.19,.56-.37,.83-.57,.35-.24,.69-.52,1.04-.74,.53-.38,1.1-.68,1.65-1.01,.84-.54,1.75-1.14,2.74-1.45,.58-.17,1.22-.23,1.84-.34,.81-.1,1.65-.18,2.48-.21,.54,.01,1.09,.01,1.62,.01,.31-.05,.63-.08,.96-.13,.57-.12,1.17-.27,1.75-.45,.2-.06,.41-.11,.65-.22,.08-.03,.17-.07,.23-.15,.11-.13,.16-.24,.29-.29,.2-.09,.38,.02,.54,.02,.14,.01,.27-.06,.38-.11,.5-.16,.99-.43,1.48-.66,.23-.11,.43-.23,.65-.29,.23-.08,.49-.1,.72-.08,.39,.08,1.04,.46,1.44,.22,.42-.22,.03-1.25,.01-1.63-.01-.24,.05-.51,.17-.68,.34-.57,1.26-.73,1.89-.82,.19-.06,.52-.11,.66-.27h0c.06-.07,.1-.12,.1-.25,0-.17-.13-.32-.21-.46-.17-.35-.38-.7-.49-1.11-.15-.57-.12-1.3-.38-1.83-.14-.32-.49-.66-.85-.72-.23-.03-.43,.06-.55,.19-.7,.53,.23,1.62,.29,2.32,.03,.25-.06,.53-.2,.7-.19,.24-.43,.39-.64,.59-1,.84-2.06,1.48-3.21,2.01-.39,.18-.8,.36-1.19,.57-.15-.04-.35,0-.46,.05-.96,0-1.86-.02-2.72-.19-.31-.06-.65-.15-.96-.22-.77-.14-1.51-.22-2.27-.43-.78-.18-1.64-.29-2.51-.35-.2,0-.47-.06-.68,0-.19,0-.59-.05-.74,.03-.06,.02-.13,.02-.21,.03-.12,0-.3,.03-.42,.09-.18,0-.54,.05-.7,.12-.04,0-.1,.02-.17,.02-.07,.02-.12,.02-.18,.03-.06,0-.13,.02-.2,.02-.06,0-.12,.02-.18,.02-.44,0-.82,.23-1.21,.35-.55,.18-1.1,.37-1.69,.56-.4,.15-.84,.26-1.21,.52-.3-.01-.57,.13-.82,.2-.35,.13-.7,.26-1.02,.4-.78,.3-1.56,.59-2.31,.94-.71,.34-1.37,.7-2.1,.98-.47,.19-.96,.35-1.47,.47-.28,.08-.57,.13-.84,.21-.17,.02-.37,.04-.53,.13-.05,0-.09,.01-.16,.03-.08,0-.14,.02-.19,.02-.08,0-.15,0-.24,.03-.13,0-.27,0-.36,.07-.12,0-.25,0-.35,.05-.09,0-.2,0-.31,.06-.05,0-.11,.01-.14,.02-.11,.01-.2,.01-.26,.02-.14-.01-.3-.02-.39,0-.21,0-.65-.04-.81,.02-.17,0-.55-.04-.7,.02-.96-.02-1.86-.1-2.77-.2-.16,0-.34,0-.51,0-.44-.09-.93-.16-1.36-.27-1.34-.38-2.61-.85-3.94-1.28-.31-.14-.63-.26-.94-.41-.68-.25-1.36-.4-2.11-.49-.23-.03-.58-.1-.77-.01-.23,0-.53-.05-.7,.01-.06,.02-.12,.02-.2,.02-.05,.02-.14,.02-.22,.05-.08,0-.19,.01-.29,.04-.06,.02-.11,.02-.15,.03-.09,.02-.12,.02-.18,.03-.07,.01-.14,.01-.18,.01-.28,0-.6,.08-.84,.16-.39,.08-.74,.14-1.11,.26-.24,.04-.49,.12-.76,.18-.2,.06-.44,.11-.64,.14-.07,.03-.12,.04-.18,.04-.04,0-.12,.02-.18,.02-.75,0-1.57,.05-2.19-.28-.53-.31-.79-.87-1.01-1.42-.12-.35-.26-.85-.29-1.23-.11-1.56,1.16-2.69,2.45-3.16,.76-.3,1.56-.5,2.43-.63,.55-.05,1.22,0,1.76,.02,.27,0,.55,.04,.8,.08,.16-.02,.31-.08,.49-.02,.93,.14,1.87,.37,2.73,.59,.48,.09,.93,.23,1.37,.32,.58,.17,1.14,.38,1.74,.56,.32,.05,.63,.15,.96,.2,.41,.15,.93,.39,1.44,.3,.21-.06,.32-.3,.2-.45-.13-.15-.26-.27-.38-.41-.37-.46,0-.86,.44-1.02,.8-.32,1.73-.44,2.59-.58,.64-.14,1.26-.25,1.92-.4,.58-.1,1.24-.1,1.88-.17,.69-.08,1.39-.18,2.1-.25,.5-.05,1.01-.04,1.52-.08,.3,0,.55-.07,.84-.09,.41-.06,.79-.11,1.17-.22,.71-.21,1.33-.52,1.98-.86,.43-.22,.84-.4,1.26-.64,.07-.03,.15-.1,.23-.15,.09-.03,.2-.05,.29-.1,.22-.09,.45-.19,.66-.27,.38-.21,.76-.4,1.13-.6,.51-.24,1.01-.5,1.53-.72,.41-.27,.84-.51,1.24-.75,.56-.31,1.11-.59,1.66-.86,.41-.19,.81-.39,1.22-.59,.4-.19,.81-.31,1.24-.47,.18,.02,.35,.06,.43,.23,.12,.39-.22,.79-.37,1.1-.19,.41-.44,.79-.5,1.27-.06,.43,.14,.76,.36,1.05,.24,.32,.58,.54,.96,.61,1.1,.19,1.74-.71,2.75-.73,.24,0,.47,.04,.68,.1,.43,.1,.89,.19,1.31,.23,.4,.02,.85,.06,1.26,.04,.72-.06,1.35-.27,2.05-.42,.4-.08,.82-.14,1.19-.27,.26-.07,.46-.17,.67-.27,.31-.14,.65-.26,.94-.45,.74-.53,1.37-1.18,2.19-1.52,.32-.16,.74-.17,1.11-.18,.62-.04,1.29-.04,1.83,.09,.58,.14,1.1,.44,1.63,.72,.25,.14,.5,.26,.73,.43,.15,.12,.29,.23,.44,.37,.4,.27,.81,.62,1.15,1.02,.25,.3,.41,.65,.56,1.02,.53,1.1,.74,2.36,.83,3.7,.05,.31,.09,.6,.11,.89,.02,.91,0,1.88-.2,2.72-.35,1.71-1.11,3.16-2.19,4.5-.22,.31-.51,.59-.78,.89-.54,.62-1.12,1.21-1.75,1.76-.28,.22-.58,.42-.86,.63-.37,.25-.72,.47-1.07,.73-.53,.3-1.05,.53-1.57,.83-.91,.46-1.83,.88-2.78,1.25-.79,.29-1.59,.56-2.43,.77-.28,.07-.55,.14-.82,.25-.53,.14-1.1,.28-1.63,.43-.31,.09-.64,.16-.99,.22-.21,.08-.45,.06-.63,.16-.17,0-.81,.1-.93,.19-.21,0-.78,.1-.94,.17-.05,.03-.11,.03-.16,.03-.07,.02-.12,.03-.18,.03-.07,.04-.14,.05-.21,.05-.15,0-.34,0-.46,.07-.04,0-.09,.01-.15,.01-.08,.01-.14,.01-.22,.01-.2,0-.39,.07-.58,.1-.45,.12-.91,.24-1.32,.37-.4,.09-.77,.22-1.16,.31-1.41,.49-2.74,1.05-4.1,1.57-.63,.17-1.23,.37-1.84,.56-.1,0-.22,.02-.28,.05-.07,0-.14,.03-.18,.05-.15-.02-.34,0-.46,.07-.04,0-.12,0-.17,0-.11,0-.22,.03-.28,.06-.38-.01-.73,.13-1.07,.2-.1,.01-.18,.03-.29,.06-.27,0-.52,.08-.78,.17-.14,.01-.28,.05-.39,.08-.07,0-.1,0-.18,.03-.07,0-.13,.02-.18,.02-.08,0-.18,.03-.25,.03-.06,.02-.12,.02-.17,.02-.17,0-.37,0-.48,.1-.11,0-.24,0-.34,.03-.04,.02-.1,.04-.15,.05-.07,0-.13,0-.24,0-.09,0-.3,0-.39,.03-.18,0-.4-.04-.54,0Zm.11-9.3c0-.32,.23-.56,.38-.76,.14-.27,.26-.57,.48-.75,.15-.14,.31-.17,.46-.21,.41,.02,.94,.21,.94,.69,.01,.35-.14,.64-.14,.95-.06,.35-.06,.8-.23,1.04-.13,.17-.27,.19-.44,.31-.57,0-1.48-.65-1.45-1.27Zm2.45-3.21c.16-.37,.84-.58,1.2-.66,.12-.05,.24-.07,.35-.09,.72,0,.89,.41,.71,1.03-.07,.2-.1,.4-.23,.55-.09,.15-.23,.19-.35,.26-.13,0-.22,0-.34-.01-.38-.04-1.59-.51-1.34-1.07Zm1.17,4.51c-.08,.13-.21,.17-.32,.24-.35,0-.65-.53-.5-.87,.04-.1,.17-.15,.26-.24,.46,.05,.82,.45,.56,.87Zm2.04-3.47c.55,.02,1.49,.24,1.45,.95-.01,.15-.09,.3-.21,.41-.2,.23-1.14,.74-1.44,.72-.68-.06-.47-1.39-.22-1.77,.13-.16,.26-.24,.42-.31Zm.12-2.51c.14-.2,.37-.24,.55-.35,.14,0,.29,0,.39,.06,.39,.26,.26,.94,.05,1.29-.06,.1-.15,.19-.25,.24-.61,0-1.11-.7-.74-1.24Zm2.95,2.25c-.1,.17-.25,.31-.38,.46-.16,.14-.37,.33-.62,.33-.62-.04-.72-1.23-.38-1.57,.14-.14,.3-.15,.5-.22,.46,.07,1.23,.36,.88,1Zm-.47-2.98c.29-.33,.65-.39,.99-.54,.24,0,.44,.02,.6,.12,.45,.34,.27,1.35-.04,1.7-.12,.14-.24,.16-.38,.25-.23,0-.44-.05-.64-.15-.53-.21-1.03-.86-.53-1.38Zm2.88-.73c.26-.29,.69-.34,1.02-.47,.33,0,.66,0,.91,.19,.41,.32,0,1.41-.34,1.67-.1,.1-.24,.12-.34,.2-.65,0-1.74-.98-1.24-1.59Zm3.25-.72c.02-.22,.24-.51,.39-.68,.2,.02,.37,.04,.57,.06,.42,.04,.89,.04,1.22,.16,.92,.45,.26,1.54-.26,2-.08,.04-.21,.09-.3,.16-.25,0-.45-.06-.65-.16-.46-.28-1.06-.98-.98-1.55Zm4.38-.21c.13-.12,.3-.12,.49-.23,.53,.05,1.48,.2,1.51,.83,.02,.17-.03,.34-.17,.45-.13,.18-.37,.35-.55,.43-.1,.03-.22,.07-.31,.12-.21,0-.38,0-.57-.1-.39-.26-.85-1.06-.4-1.5Zm-32.85,51.02c-.41-.29-.22-2.02-.16-2.55,.04-1.06,.26-2.11,.54-3.02,.19-.49,.34-.98,.52-1.45,.12-.38,.24-.73,.41-1.11,.14-.31,.29-.61,.44-.96,.22-.51,.43-1.06,.63-1.61,.2-.44,.41-.87,.59-1.31,.1-.13,.18-.28,.24-.43,.15-.3,.29-.59,.42-.87,.36-.65,.84-1.25,1.23-1.86,.37-.58,.7-1.15,1.04-1.7,.23-.27,.42-.54,.64-.78,.24-.42,.5-.83,.78-1.23,.14-.2,.38-.39,.55-.61,.08-.12,.2-.27,.29-.4,.59-.68,1.15-1.33,1.74-2,.3-.34,.57-.74,.92-1.06,.49-.46,1-.91,1.49-1.37,.56-.48,1.1-1,1.66-1.48,.28-.23,.51-.52,.81-.7,.2-.1,.43-.18,.66-.25,.18-.1,.34-.17,.52-.27,.6-.28,1.15-.72,1.83-.9,.26-.04,.55-.02,.82-.02,.3-.02,.58-.05,.88-.06,.13-.02,.25-.02,.37-.02,.28,.02,.55,.02,.8,.1,.74,.35,2.23,1.67,1.63,2.62-.29,.45-.76,.66-1.18,.93-.55,.33-1.11,.69-1.68,1.05-.88,.57-1.68,1.26-2.54,1.9-1.99,1.5-3.91,3.12-5.62,4.99-.48,.56-.96,1.13-1.46,1.74-.5,.6-.94,1.26-1.49,1.86-.24,.31-.5,.58-.84,.77-.25,.19-.52,.36-.78,.51-.31,.26-.52,.55-.78,.83-.32,.34-.55,.71-.76,1.1-.41,.77-.5,1.71-.8,2.52-.33,.82-.82,1.54-1.25,2.33-.23,.42-.41,.9-.61,1.34-.27,.49-.54,1-.79,1.48-.25,.44-.47,.87-.74,1.29-.12,.19-.27,.42-.44,.56-.14,.14-.35,.21-.53,.09Zm6.87-2.17c.23-.76,1.72-.8,2.38-1.08,.6-.24,1.19-.46,1.7-.89,.55-.44,.98-1,1.36-1.54,.18-.18,.33-.41,.43-.64,.24-.46,.3-1.1,.72-1.45,.07-.06,.14-.08,.2-.13,1.14,.05,1.09,1.45,1.18,2.35,.05,.29,.07,.56,.14,.85,.06,.54-.01,1.09-.04,1.66-.04,.65-.11,1.28-.16,1.94-.06,.81,.06,1.75-.4,2.33-.22,.27-.5,.49-.77,.7-.3,.26-.61,.51-.96,.65-.15,.07-.32,.13-.45,.18-.11,0-.2,.05-.32,.07-.33,0-.58,0-.85-.09-.43-.2-.75-.65-1.14-.91-.44-.29-1.03-.3-1.35-.75-.18-.27-.3-.49-.41-.77-.1-.26-.18-.54-.33-.75-.37-.52-1.22-.97-.94-1.74Zm-1.32-5.64c.02-.54,.2-1.04,.42-1.46,.46-.81,1.22-1.33,2.07-1.61,.27-.08,.55-.07,.84-.16,.98,.01,1.75,.3,2.46,.87,.21,.18,.43,.41,.55,.64,.25,.46,.38,1.09,.38,1.65,0,.61-.05,1.08-.27,1.57-.39,.78-1.14,1.44-1.92,1.74-.22,.06-.44,.12-.66,.17-.05,.01-.1,.01-.16,.03-.1-.01-.21-.01-.31,.03-.68-.03-1.27-.08-1.8-.38-.95-.53-1.68-1.93-1.59-3.08Zm.23,52.02c-.07,.09-.17,.1-.23,.16-1.05,0-1.91-.25-2.86-.41-.55-.08-1.52-.02-1.93-.36-.62-.53,.72-1.85,.12-2h-.03c-.41-.06-1.07,.68-1.39,.97-.13,.07-.24,.14-.36,.25-.24,.12-.47,.2-.7,.34-.07,.01-.17,.08-.24,.09-.2,0-.38,.03-.53-.06-.57-.25,.07-1.26,.25-1.58,.14-.21,.29-.46,.41-.72,.14-.25,.24-.51,.42-.76,.34-.5,.95-1.02,1.5-1.27,.19-.09,.37-.08,.55-.13,.13,0,.27,0,.41,.01,1.22,.29,1.81,1.97,2.43,2.87,.09,.14,.21,.32,.34,.43,.07,.08,.16,.17,.24,.24,.16,.17,.28,.37,.46,.52,.27,.22,1.33,1.01,1.15,1.42Zm18.18-8.76c-.32,.12-.68,.25-1.01,.34-.18,.04-.34,.1-.5,.14-.39,0-.75,.17-1.13,.24-.13,.03-.26,.07-.41,.12-.21,0-.57,.08-.74,.17-.12,0-.24,0-.33,.04-.06,0-.11,.02-.18,.02-.4,0-.85,.16-1.21,.26-.14,.05-.25,.05-.37,.11-.05,0-.1,0-.15,0-.06,.02-.13,.04-.17,.07-.08,0-.16,0-.2,0-.12,0-.27,0-.35,.06-.08,0-.13,.01-.2,.01s-.15,0-.24,.03c-.05,.01-.12,.02-.18,.02-.06,0-.11,.03-.2,.05-.03,0-.1,0-.16,0-.09,.01-.14,.01-.21,.02-.08-.01-.21-.01-.28,.04-.04,0-.12,.01-.2,.03-.08,0-.14,0-.24,0-.04,.03-.1,.03-.16,.03-.05,.02-.11,.04-.15,.04-.1,0-.17,.03-.25,.03-.09,0-.2,0-.26,.04-.11,0-.19,0-.29,.02-.2,0-.39,.04-.59,.11-1.39,.43-1.75,1.75-2.45,2.82-.5,.74-1,1.51-1.63,2.16-.22,.22-.51,.38-.8,.48-.08,.02-.18,.03-.27,.06-.07,.02-.14,.02-.22,.06-1.11-.04-2.17-.47-2.98-1.1-.26-.15-.58-.42-.63-.74-.11-.52,.18-1.06,.36-1.47,.14-.3,.27-.6,.38-.91,.05-.12,.08-.22,.13-.4,.09-.17,.15-.32,.22-.51,.07-.16,.13-.31,.17-.46,.1-.2,.22-.38,.31-.58,.3-.62,.6-1.22,.9-1.85,.33-.72,.6-1.48,.92-2.2,.14-.2,.29-.44,.41-.65,.23-.39,.46-.76,.77-1.07,.39-.39,1.2-.84,1.73-1,.26-.05,.5-.13,.77-.17,.39-.1,.75-.19,1.16-.26,.83-.07,1.7-.07,2.52-.19,1-.17,1.87-.65,2.74-1.03,1.01-.47,3.02-1.33,3.13-2.7,.06-.67-.2-.94-.86-.94-.25,0-.49,.06-.66,.17-.84,.47-1.1,1.43-1.82,2.05-.52,.46-1.16,.76-1.8,1-.22,.04-.42,.12-.65,.2-.06,0-.12,.02-.18,.02h-.22c-.1,.03-.17,.03-.26,.05-.43,0-.87,0-1.21-.11-.67-.17-1.35-.69-1.88-1.1-.35-.27-.73-.51-1.08-.78-.16-.14-.3-.32-.46-.46-.31-.32-.62-.63-.94-.96-.27-.3-.58-.6-.87-.93-.15-.15-.33-.29-.46-.43-.32-.38-.62-.72-.93-1.06-.18-.24-.35-.42-.53-.65-.72-.97-1.42-2-2.01-3.04-.19-.32-.37-.59-.56-.86-.17-.3-.34-.59-.48-.87-.13-.3-.27-.59-.4-.88-.23-.47-.46-.9-.68-1.37-.1-.25-.2-.51-.31-.77-.13-.32-.32-.66-.42-1.02-.24-.8-.4-1.62-.58-2.43-.11-.54-.26-1.05-.32-1.6-.01-.14-.04-.3-.04-.46,.01-.2,.06-.35,.14-.52,.38-.6,2.46-.62,3.28-.67,.45,0,.89-.04,1.33-.05,1.11-.1,2.22-.22,3.34-.32,.37-.06,.76-.09,1.15-.17,.49-.05,.92-.07,1.39-.09,.21-.06,.44-.08,.68-.12,.2-.07,.41-.09,.61-.11,.48,0,.85,.05,1.21,.33,.16,.13,.29,.34,.42,.49,.29,.41,.54,.87,.81,1.28,.75,1.09,1.52,2.12,2.19,3.28,.27,.45,.59,.84,.87,1.28,.38,.59,.76,1.18,1.15,1.81,1.14,1.71,2.38,3.43,3.52,5.18,.47,.73,.92,1.47,1.4,2.2,.18,.26,.35,.53,.54,.77,.35,.62,.72,1.23,1.08,1.85,.07,.1,.17,.18,.24,.26,.04,.13,.09,.25,.16,.37,.25,.41,.47,.8,.7,1.18,.32,.44,.57,.92,.82,1.35,.08,.17,.15,.35,.27,.48,.21,.35,.47,.68,.68,1.03,.1,.23,.22,.45,.35,.65,.35,.66,1.11,1.5,.93,2.36-.12,.52-1.3,1.06-1.71,1.25-.21,.1-.41,.18-.62,.32-.27,.08-.53,.19-.82,.28-.54,.23-1.07,.5-1.66,.69-.36,.09-.73,.16-1.1,.25Zm4.63,4.9c-.19-.12-.35-.26-.53-.37-.39-.27-.78-.55-1.19-.77-.39-.22-.76-.43-1.15-.65-.3-.18-.75-.36-.96-.71-.18-.3,0-.6,.27-.72,.12-.02,.22-.07,.34-.11,.92,0,1.81,.17,2.64,.31,.15,0,.28,.03,.43,.04h.24c.17,.02,.27,.11,.43,.12,.35,.05,.68,.13,1.04,.17,.53,.09,1.06,.2,1.6,.27,.96,.13,1.92,.12,2.56,.8,.21,.22,.34,.44,.41,.68,.14,.43-.01,.87-.25,1.2-.27,.4-.72,.75-1.08,1.06-.27,.23-.56,.44-.88,.56-.17,.08-.35,.14-.52,.2-1.41-.02-2.41-1.22-3.42-2.09Zm7.19,2c-.12,.23-.23,.44-.34,.64-.1,.25-.18,.49-.28,.74-.17,.37-.32,.71-.49,1.09-.12,.38-.27,.76-.4,1.13-.08,.24-.15,.49-.22,.7-.09,.23-.1,.49-.2,.7-.15,.23-.22,.27-.43,.38-.29,0-.51-.12-.73-.29-.27-.21-.76-1.01-1.11-.91-.66,.23-.36,2.79-1.31,2.38-.22-.09-.34-.31-.39-.51-.35-.72-.32-1.61,.03-2.3,.33-.67,.9-1.31,1.51-1.79,.44-.33,.94-.6,1.35-.98,.9-.79,1.72-1.75,2.74-2.25,.13,0,.28,0,.37,.06,.27,.25,0,.98-.08,1.21Zm1.38-8.83c-.19,.46-.47,1.48-1.05,1.49-.52,.05-1.3-1.03-1.56-1.45-.36-.56-.89-1.34-.95-2.04-.05-.58,.54-1.23,.86-1.65,.15-.17,.28-.36,.49-.51,.18-.14,.37-.17,.55-.27,.39,.02,.75,.13,1.04,.37,.66,.49,1.15,1.54,1.13,2.4-.05,.57-.3,1.16-.51,1.67Zm7.18,1.3c-.08,.51-.17,1.08-.47,1.49-.14,.2-.37,.33-.6,.37-.1,.04-.19,.05-.27,.07-.06,.01-.11,.03-.18,.03-.04,0-.14,.03-.21,.03-.1,0-.24,.01-.33,.06-.03,0-.13,0-.19,0-.11,0-.23,0-.34,.07-.06,0-.12,0-.18,.01-.07,.02-.15,.03-.21,.04-.14,0-.35,0-.47,.07-.18,0-.44-.05-.57,.03-.63-.03-1.58,.08-1.94-.39-.15-.21-.15-.52-.11-.75,.11-.61,.41-1.13,.62-1.7,.09-.29,.21-.56,.32-.87,.2-.64,.37-1.34,.89-1.78,.37-.33,.75-.57,1.2-.67,.2-.03,.43-.1,.64-.14,1.25,.06,2.08,.95,2.35,2.1,.06,.28,.14,.61,.13,.93-.01,.38-.07,.67-.09,.98Zm6.29,.06c-.38,.41-1.43,.66-2.01,.81-.21,.03-.44,.11-.65,.15-.09,.03-.17,.03-.27,.04-.35,0-.7-.04-.92-.3-.47-.51-.27-1.55-.18-2.24,.02-.23,.04-.52,.12-.7,.08-.29,.23-.53,.41-.74,.18-.24,.7-.42,.97-.46,.17-.04,.31-.08,.47-.09,.61,0,1.19,0,1.65,.28,.22,.12,.38,.35,.5,.57,.24,.62,.39,2.13-.08,2.67Zm5.59-1.46c-.33,.48-1.22,.62-1.75,.78-.12,.02-.21,.05-.3,.07-.09,0-.12,0-.18,0-.08,.03-.14,.03-.2,.03-.26,0-.5-.01-.68-.16-.45-.38-.59-1.63-.43-2.24,.05-.22,.17-.41,.31-.57,.23-.27,.58-.42,.91-.51,.13-.03,.25-.03,.37-.07,.3,0,.59,0,.87,.05,.78,.18,1.19,.8,1.25,1.61,.02,.33,.05,.7-.17,.99Zm4.91-2.24c-.12,.07-.23,.18-.31,.27-.42,.31-.87,.55-1.36,.76-.16,.03-.31,.08-.5,.15-.19,0-.34-.03-.51-.09-.51-.24-.65-1.09-.71-1.63-.03-.16-.17-.34-.06-.51,0-.02,.14-.04,.21-.07,.26-.13,.41-.38,.65-.52,.24-.1,.49-.18,.77-.23,.09,0,.18-.03,.27-.04,.22,0,.43,0,.65,.03,.61,.08,1,.51,1.06,1.1,.06,.31,0,.56-.15,.8Zm3.64-2.83c-.2,.27-.61,.56-.88,.73-.11,.03-.19,.1-.27,.15-.71-.03-.91-1-.5-1.44,.3-.37,.54-.37,.94-.52,.18,0,.36,0,.5,.05,.5,.17,.5,.69,.22,1.04Zm1.95-2.31c-.23-.09-.37-.31-.38-.55-.05-.58,.38-.97,.86-1.12,.14-.05,.3-.05,.45-.11,.1,.06,.25,.06,.3,.12,.77,.52-.5,2.07-1.24,1.66Zm3.47-3.81c-.4,.02-.57-.39-.37-.68,.11-.09,.22-.19,.32-.28,.61,.19,.68,.92,.05,.97Z"></path></g></g></svg>