<svg width="180" height="180" viewBox="0 0 180 180" fill="black" xmlns="http://www.w3.org/2000/svg">
<style>
@media (prefers-color-scheme: dark) {
  path {
    fill: white;
  }
}
</style>
<path d="M 114.78345,50.712261 C 92.941988,40.980888 75.425422,36.439726 58.125365,31.682053 55.097722,30.816978 53.800206,27.789456 54.665209,24.978203 56.827752,18.058132 63.315334,6.3804851 66.342856,2.4879361 67.856737,0.5416592 70.235453,-0.32335329 72.614168,0.10914789 88.400585,2.9204496 119.97366,13.516825 133.16509,21.950705 c 2.37872,1.513761 3.24379,4.541379 1.94618,7.136364 -2.16245,4.757431 -7.56869,15.570148 -12.7589,20.32782 -1.94617,1.729909 -5.18996,2.594984 -7.56892,1.297372 z M 108.0796,103.69426 C 81.913003,92.881782 63.747871,86.826497 46.447622,82.717872 43.63632,82.069066 42.555049,79.474081 42.987562,76.662587 43.852565,70.391274 48.826385,59.36253 52.50269,54.821126 c 1.513785,-1.946178 3.892549,-3.027522 6.487509,-2.594984 12.542867,1.946178 52.117161,14.921341 65.524621,22.273998 2.37896,1.297613 3.46006,4.108866 2.59523,6.920119 -1.73015,5.622507 -6.92012,15.570148 -11.67779,20.544091 -1.72991,1.94618 -4.75744,2.81125 -7.35266,1.72991 z m -54.928152,4.75767 c 24.869199,4.9737 71.795912,20.97638 91.042392,36.11424 2.16269,1.7299 3.02752,4.75743 2.16269,7.13638 -2.59499,6.48758 -8.86654,19.24648 -13.40771,25.51779 -2.16244,2.81125 -6.05504,3.67633 -9.08256,1.72991 -30.708003,-19.67901 -60.983464,-31.35656 -86.93379,-38.49295 -3.027534,-0.86508 -4.32505,-4.32514 -3.243786,-7.13639 2.378783,-6.27131 9.08261,-18.16513 12.975182,-22.49027 1.513761,-1.7299 4.108794,-2.81125 6.487582,-2.37871 z" />
</svg>
