<svg xmlns="http://www.w3.org/2000/svg" xmlns:xlink="http://www.w3.org/1999/xlink" width="160" height="160" viewBox="0 0 160 160">
  <defs>
    <clipPath id="clip-path">
      <rect id="長方形_3" data-name="長方形 3" width="159.998" height="101.586" fill="none"/>
    </clipPath>
  </defs>
  <g id="グループ_824" data-name="グループ 824" transform="translate(21997.443 4717.443)">
    <rect id="長方形_624" data-name="長方形 624" width="160" height="160" transform="translate(-21997.443 -4717.443)" fill="#fff"/>
    <g id="logo" transform="translate(-21997.443 -4688.236)">
      <g id="img">
        <g id="グループ_6" data-name="グループ 6">
          <g id="グループ_5" data-name="グループ 5" clip-path="url(#clip-path)">
            <path id="パス_35" data-name="パス 35" d="M230.475,65.6a4.72,4.72,0,0,0-.544-.109c-.218-.109-.109.326-.435.326a19.22,19.22,0,0,0-2.5,0c-.435.109-.653.435-1.088.326-.326-.109-.217-1.2-.435-1.63-.109-.435-.653-.543-1.088-.869-.217-.109-.109-.326-.217-.435-.109-.217-.544-.326-.761-.326a4.48,4.48,0,0,0-.87.326c-.761.978-.109,2.173-.979,3.259-.218.217-.218.435-.544.543s-.761,0-1.2.109c-.109,0-.326.217-.435.217-.979.217-2.067.109-3.045.326-.326,0-.218-.435-.326-.326s0-.326,0-.435a8.573,8.573,0,0,0-.326-1.412,3.413,3.413,0,0,0-1.632-1.847,1.248,1.248,0,0,0-1.305.543c-1.305,1.847-1.74,3.694-2.828,5.432-.109.109-.326.109-.435.217-.109.217,0,.435-.109.652a23,23,0,0,1-1.2,2.282c-.109.217-.109.761-.326.978a.151.151,0,0,1-.217,0c-.109.109.217-1.086-.218-1.2-.109,0-.653-.435-.761-.435-.109-.217,0-.326-.109-.543-.109-.109-.326,0-.435-.109s-.109-.435-.218-.543a2.219,2.219,0,0,0-2.175-.217,2.943,2.943,0,0,0-1.088,1.2,2.362,2.362,0,0,0-.435,1.847,7.493,7.493,0,0,0,2.393,2.5c.544.435.87.109,1.414.435-.435.652-.109.652-.653,1.087-.544.326-1.849.326-1.958.869-.218.543,0,1.086-.109,1.3-.326.326-.544.543-.544.869a1.286,1.286,0,0,1-.109.869c-.544.652-2.067,2.173-2.067,2.716,0,.326.326.326.544.326a.564.564,0,0,1,.218.435c0,.326.435.217.653.326.217,0,.326.217.653.109.217,0,.326-.326.544-.326.326,0,.435.543.653.326a10.965,10.965,0,0,0,1.414-1.738c0-.109,0-.109-.109-.326,0-.109,0-.326.109-.326h.435a1.827,1.827,0,0,1,.87-.761,3.52,3.52,0,0,1,1.849-.326,3.2,3.2,0,0,1,1.088.326,2.96,2.96,0,0,1,.979,0q.163,0,.326.326c.109.109.544,0,.87,0,.109,0,.326-.109.326.109.109,0,.218.217.435.217.326.109.87,0,.653.326,0,.109,0,.109-.109.109,0,0-.109-.109-.544.109-.435.109-.544.435-.979.652-.109.109-.653.109-.761.217-.761.652.435,1.956.979,2.716.326.435.218.217.761.543.109,0,.109.543.435.543.109,0,.109.109.326,0,.218,0,.109.978.218.869a2.018,2.018,0,0,1,.761-.217s.979-.869.87-.978-.435-.109-.544-.326c-.109-.109.109-.217.109-.326.544-.109.326.326.761,0,.109,0,.326-.217.326-.217,0,.109.544-.543.544-.326.326-.109.761-.652,1.414-1.412.109.217,0,.543.109.761a8.635,8.635,0,0,0,1.523,1.847c.326.326.435.652.653.869.109.217.653-.109,1.088-.109.326,0,.761.217.979.109.109-.109.435-.435.544-.326.109,0,.109-.217.217-.217.326-.109.435.435.761.326.435-.109.87-.652,1.2-.652s.979.435,1.305.217a2.293,2.293,0,0,1,1.414-.543,3.651,3.651,0,0,0,1.088,0v-.435c0-.217-.326,0-.544-.109a.4.4,0,0,1-.109-.326c.326-.217.87.109,1.088-.109.218-.109.218-.543.326-.978,0-.217-.435-.652-.653-.978s-.326-.326-.217-.652c.109-.435,1.305-.543,1.523-.978,0-.109-.109-.326-.218-.326a8.433,8.433,0,0,0-2.393.109,6.539,6.539,0,0,0-1.414.978c-.109.109-.109.217-.326.326a.989.989,0,0,1-1.088,0c-.217-.109,0,0-.217-.326-.326-.543-1.632-.109-2.393-.217-.109,0,0-.326-.109-.435-.435-.109.435-.543.544-.652a4.882,4.882,0,0,1,1.2-1.63c.326-.217.653,0,.979-.109.109,0,.326-.217.435-.217a2.96,2.96,0,0,0,.979,0c.218-.109.326-.761.761-.869.109,0,.435,0,.435-.109.109-.217-.326-.543-.544-.978a5.617,5.617,0,0,0-.653-1.412c-.435-.543-.653-.543-.87-1.086,0-.109.544-.109.544-.217,0-.326-.217-.217.326-.543,0,0,.326.326.435.217.326,0,.653-.326.544-.217.109,0,0,.435,0,.543s.218-.109.326,0c.218.109.218-.217.435-.217s0-.652.217-.869c.109-.109.326,0,.435-.109,0-.109-.109-.326,0-.326-.435-.543,0-1.3-.326-1.63-.109-.109,0-.652,0-.652l-.544-.326a13.285,13.285,0,0,0-.218-2.064c0-.109-.218-.326-.218-.435.109-.326.87,0,.979-.109.109-.217.653-.109.761-.326.109-.109-.109-.761,0-.869.109-.217.217-.217.544-.435a4.711,4.711,0,0,0,.544-.109c.217-.543-.217-1.521-.217-2.064,0-.109.435,0,.326-.109.544.435.653.435.544.326m-15.88,4.455a9.54,9.54,0,0,1,1.305-1.63c.109,0,.326,0,.326.109a10.452,10.452,0,0,0,0,1.847c.217.435,1.305.109,1.305.652,0,.326,0,.869-.326,1.086A2.922,2.922,0,0,0,215.9,70.6c-.217-.109-.87.109-.979,0-.544-.326-.217.761-.653.326-.435-.109,0-.543.326-.869m.87,8.04c-.761-.109-.761-.326-1.2,0a.536.536,0,0,0-.109.326c-.109.326-.109.652-.218,1.2,0,0,0,.435.109.435.326,0,.109.326.544.543.109.109.109.435.217.435.218.109.653,0,.761.109,0,.109-.326.217-.435.543-.326.326-.326.652-.435.652s-.109-.435-.217-.869a4.469,4.469,0,0,1-.326-.869c0-.109-.218-.326-.218-.435a13.02,13.02,0,0,0-1.305-1.2,2.615,2.615,0,0,0-1.305,0c-.109,0-.109.326-.326.326-.544,0-.761.326-1.305.326-1.2-.109.87-1.847.761-2.064s-.326,0-.326-.109c0-.326.217-.109.217-.326s.544-.217.326-.109c.109,0-.109.217,0,.217.218-.109.218-.326.544-.652,0-.109.435,0,.544-.109a4.264,4.264,0,0,0,.217-.652c.109-.109,0-.109.109-.109h.979c.326,0,.326-.326.653-.217.217,0,.217.217.326.326a1.15,1.15,0,0,1,.544.217c.217.109.109.326.217.435.218.217.653.543.87.761.326.217.653.543.979.761s.761.217.761.326c.217-.217-1.088-.109-1.958-.217m4.242-5.65c0,.109-.218,0-.326,0a.813.813,0,0,1-.109-.543c-.109-.217-.326-.326-.544-.543a2.561,2.561,0,0,1,.87-.217,1.149,1.149,0,0,1,.544.217c.109.543-.435.652-.435,1.086m3.916-.435a.208.208,0,0,1-.326-.109c0-.326,0-.652.109-.761-.109.109.217-.435.544-.326.653.326-.109.978-.326,1.2" transform="translate(-127.797 -40.072)" fill="#e50012"/>
            <path id="パス_36" data-name="パス 36" d="M278.367,96.727h0c-.109.109,0,.109,0,0" transform="translate(-177.322 -61.634)" fill="#e50012"/>
            <path id="パス_37" data-name="パス 37" d="M71.135,142.654H153.69a6.31,6.31,0,0,1,6.309,6.3v37.158a6.31,6.31,0,0,1-6.309,6.3H6.309A6.31,6.31,0,0,1,0,186.113V148.956a6.31,6.31,0,0,1,6.309-6.3H41.55l.218.761.326.217.435.217,1.2.435,1.2.435,2.719.869H48.4l1.088-.652.218-.435v-.435l.435-.543.218-.978h1.523v.761l-.326.435-.435.435-.326.326-.218.326v.435l-.653.543-.109.326-.435.978-.435.217-.326.435.109.761.435.978,1.849,1.412.218.217,1.305.76.435-.217.218.217.544-.217.979.326h.218v.543l.761.217.326.109,1.2-1.086,1.305-2.5.979-1.738v-.652l.761-.76.761-1.847.435-.869.435-.435.218-.109h1.414l.544.326.979.435,1.2-.217.979.217,1.305-.217h.653l.653.217.109-.435h.218l.544.435Z" transform="translate(0 -90.829)" fill="#009844"/>
            <path id="パス_38" data-name="パス 38" d="M298.533,127.3c.87-.435,1.958-.869,2.828-1.2.326-.109.435-.326.652-.326.326,0,.762.435,1.2.543.326,0,.544,0,.652.109s-.217.652,0,.761c.109,0,.653,0,.653.217-.218.761.435.869.87,1.2.109.109-.109.326,0,.543,0,.109-.435.217-.653.217s-.218.217-.326.326c-.218.109-.544,0-.761,0-.218.109-.326.435-.435.543s-.435,0-.653,0-.109.217-.326.217h-.762l-.217.217a3.592,3.592,0,0,1-2.284.435c-.218-.109.109-.217-.109-.326-.109,0-.326-.109-.435,0a.93.93,0,0,1-.761,0c-.218-.109-.544-.435-.761-.543-.109-.109-.544-.109-.653-.109a3.619,3.619,0,0,1-1.088-.652c-.435-.109-.544-.543-.653-.761a1.59,1.59,0,0,1,.326-1.63.852.852,0,0,1,.87-.109l.109.217c.435.435.435-.217.87,0a.837.837,0,0,0,1.087.109c.109-.217.435.109.762,0" transform="translate(-187.589 -80.143)" fill="#e50012"/>
            <path id="パス_39" data-name="パス 39" d="M45.115,165.031a69.3,69.3,0,0,1-7.94-4.455s2.61,3.911,4.024,5.976c1.414,2.173,4.133,6.193,4.133,6.193a53.726,53.726,0,0,0,20.775,1.847,27.276,27.276,0,0,1,2.175,9.235v1.3H80.247s-.761-3.26-1.2-4.781a45.864,45.864,0,0,0-4.133-7.931c6.635-1.63,12.291-5.215,18.164-8.149a59.489,59.489,0,0,1,13.161-4.672c7.07-1.738,13.6-2.825,20.775-1.738,10.768,1.412,19.8,8.366,25.234,17.275l18.056-.109c-1.632-.978-4.242-2.934-5.982-4.02-7.07-5.215-11.421-10.213-19.361-13.581a47.807,47.807,0,0,0-16.424-3.911c-16.315-.869-29.694,7.388-44.486,12.929a39.814,39.814,0,0,1-12.508,2.716,48.409,48.409,0,0,0-7.94-5.867H56.427c2.393,1.738,5.112,3.477,6.526,6.3a54.01,54.01,0,0,1-17.838-4.563" transform="translate(-23.687 -97.778)" fill="#fff"/>
            <path id="パス_40" data-name="パス 40" d="M95.105,227.519c-2.61-1.3-5.656-3.477-7.179-5.976-.544-.978,0-2.064.87-2.933H84.881a6.861,6.861,0,0,0-3.154,4.346c-.435,3.042,1.305,5.758,3.589,7.5h17.947a56.278,56.278,0,0,1-8.158-2.934" transform="translate(-52.033 -139.296)" fill="#fff"/>
            <path id="パス_41" data-name="パス 41" d="M161.77,213.842c-.326.109-2.937.76-4.677,1.086a29.41,29.41,0,0,0,1.74,2.933c1.523-.109,3.046-.869,4.46-1.086l.653,1.847c-1.088,1.2-2.828,2.608-3.807,3.8,0,0,.979,1.738,1.523,2.607a25.315,25.315,0,0,1,3.046-2.825c.544.761.109,3.694.326,4.129,2.284.109,4.677,0,6.961,0,.109-2.39-1.088-5-1.74-7.171,1.414-.435,3.807-.869,4.786.543.979,1.3-.544,3.8-1.523,5.106h3.263a14.863,14.863,0,0,0,3.7-4.129c1.305-2.064,1.414-4.672-.979-6.3-1.74-1.2-6.309-.978-9.245.652-.109-.435.653-.978.544-1.521s-.544-.652-.87-.76a8.461,8.461,0,0,0-4.133.217c-.109,0-.109-.652-.217-.652h-4.568Z" transform="translate(-100.098 -135.289)" fill="#fff"/>
            <path id="パス_42" data-name="パス 42" d="M229.689,212.838h-3.481c.326.869,1.849,2.825,1.632,3.911,0,.326-2.393,2.282-2.393,2.282l1.631,2.607c.761-.543,1.2-.978,1.849-1.412.109,0,.109-.109.109,0,.544,2.064.217,4.02,0,6.193h6.526c.109-3.042-1.088-5.976-2.284-8.583.109.109.435-.109.544,0,.761,1.412,2.175,2.825,3.807,2.607a2.113,2.113,0,0,0,1.2-.978c.326-.435.217-1.086.326-1.521,0-.109.218,0,.326-.109,2.284,1.738-.653,5.324-2.067,7.062h5.547c2.284-2.064,5-4.781,3.807-8.149-1.2-3.477-6.309-3.8-9.136-3.585-.326,0-.109-.435-.435-.543h-4.677c-.218,0,.326,1.2,0,1.738-.326.109-1.2.652-1.414.326a11.864,11.864,0,0,0-1.414-1.847" transform="translate(-143.653 -135.48)" fill="#fff"/>
            <path id="パス_43" data-name="パス 43" d="M300.069,213.762a20.794,20.794,0,0,0-6.309,1.086,14.171,14.171,0,0,0-1.087-1.63h-4.351c.761.978,2.067,3.151,1.958,3.585a4.3,4.3,0,0,0-2.175,1.847l1.2,1.956a9.075,9.075,0,0,1,1.849-1.2,11.042,11.042,0,0,1,.218,2.39,11.855,11.855,0,0,1-1.088,5.324h6.852s.761-2.825-1.305-8.475a8.842,8.842,0,0,1-.218-.978,7.465,7.465,0,0,1,2.828.217,4.773,4.773,0,0,1,2.719,2.716,5.352,5.352,0,0,1-1.632,4.672h5.547a8.849,8.849,0,0,0,3.045-5.758c.218-3.694-4.786-5.867-8.049-5.758" transform="translate(-183.578 -135.862)" fill="#fff"/>
            <path id="パス_44" data-name="パス 44" d="M330.675,213.434l.544.326a7.707,7.707,0,0,1,4.568,4.455,7.461,7.461,0,0,1-.109,4.129c2.284,0,4.351,0,6.744-.109a6.148,6.148,0,0,0-.761-3.151,15.874,15.874,0,0,0-6.091-5.65c0-.109-4.568,0-4.895,0" transform="translate(-210.703 -135.968)" fill="#fff"/>
            <path id="パス_45" data-name="パス 45" d="M133.518,132.663c-.109,0-.109.109-.109.217s.109.109.217.109a.4.4,0,0,0,.109-.326Z" transform="translate(-85.007 -84.532)" fill="#fff"/>
            <path id="パス_46" data-name="パス 46" d="M198.178,108.107c-.217.109-.217.435,0,.435.218.109.109-.326,0-.435" transform="translate(-126.174 -68.885)" fill="#fff"/>
            <path id="パス_47" data-name="パス 47" d="M241.649,126.973c-.217.109-.217.435,0,.435.326,0,.109-.326,0-.435" transform="translate(-153.873 -80.906)" fill="#fff"/>
            <path id="パス_48" data-name="パス 48" d="M151.888,44.914a2.594,2.594,0,0,0-1.2-.652c-.218,0-.544-.109-.653,0s0,.652-.109.761-.326,0-.544.109c-.109.109-.109.326-.218.543a2.882,2.882,0,0,0-.544.652c-.109.217-.544.543-.653.761s-.109.326-.218.435a1.449,1.449,0,0,1-.544.326c-.435.326-.653.978-.979,1.412-.109.109-.435.217-.544.326-.218.217-.218.543-.435.761a2.28,2.28,0,0,1-2.5.326c-.326,0-.109-.543.109-.978a10.562,10.562,0,0,0,.87-2.064c.109-.217.326-.326.435-.543s0-.652,0-.978c0-.217.435-.217.544-.435a5.293,5.293,0,0,1,.326-.761c0-.109.218-.761-.109-.978.109-.109.653,0,.653,0,.544-.978-.979-1.738-1.74-2.173-.544-.543.218-.652-.979-.761a2.611,2.611,0,0,1-1.305-.761,4.921,4.921,0,0,0-3.045-.761h-.435c-.109,0-.544-.109-.653.109h-.435c-.109,0-.544-.217-.544.217,0,.217-.761,0-.87.109.109,0-.761.978-.761.978a4.957,4.957,0,0,0-.544,1.521c0,.326.218.435.109.652-.217.761-.435.326-.544,1.2,0,.326-.435,1.2-.218,1.521-.326,0,.326.326.218.435,0,.326-.218.869-.218,1.2,0,.217.218.217.218.326-.109.652-.761,1.2-.761,1.847a14.547,14.547,0,0,1-.109,2.173c-.109.435-.544.652-.87.869a2.8,2.8,0,0,1-2.284.761,4.294,4.294,0,0,1-1.632-.652c-.218-.109-.218-.435-.435-.543a2.706,2.706,0,0,0-.87-.109,2.563,2.563,0,0,1-.87-.217c-.109-.109-.653-.435-.653-.543a3.5,3.5,0,0,0-1.523-.109,1.358,1.358,0,0,0-1.305.543c-.218.326.109.761.218,1.2,0,.109-.218.109-.218.217a3,3,0,0,0,.326,1.412c0,.109.435,0,.435.109.218.326-.109.543.218.869h.326c.109.109.109.435.218.543.218.217.761.217.979.326s.218.435.326.543H126c.109.109.109.435.218.543s.326,0,.544.109c.109.109.218.435.326.543s.326-.109.544,0c.109,0,0,.326.109.326.544.217.544,0,1.088.109l.218.217c.218.109.761.326.761.326.326.109.653-.109,1.088-.326h.544l.326.109h.87a2.385,2.385,0,0,1,.87-.326,1.248,1.248,0,0,0,.653,0,4.938,4.938,0,0,0,.87-.326,2.463,2.463,0,0,1,.979-.435c.435-.109.979.109,1.523-.109.326-.109.761-.435,1.088-.543a3.461,3.461,0,0,0,.979-.326,1.228,1.228,0,0,0,.87-.109,9.857,9.857,0,0,1,1.2-.652c.218-.109.435-.435.761-.543a1.686,1.686,0,0,1,.87-.217.48.48,0,0,1-.109.869c-.218.109-.761.109-1.305.326-.653.217-1.523.435-2.284.761-.218.109-.326.326-.544.435h-.326c-1.414.217-2.393.869-3.807.978l-1.088.217-.761.217a.4.4,0,0,1-.326.217,1.719,1.719,0,0,0-.761,0l-.653.109c-.218.109-.326.217-.544.326a5.971,5.971,0,0,0-3.372-.109c-.326.109-.761.435-1.088.543-.544.109-.979,0-1.523.109a3.578,3.578,0,0,1-.653.326c-.109,0,.544.761.544,1.086a2.226,2.226,0,0,1-.87.869c-.326.109-.544.109-.653.326-.326.761-.653,1.63-.979,2.39-.435.761-.87,1.2-1.305,1.847a3.9,3.9,0,0,0-.217,1.2c0,.109-.326.109-.435.109a19.127,19.127,0,0,0-1.523,2.5c-.109.326,0,.652-.109.978-.544,1.086-1.2,1.63-1.632,2.716a3,3,0,0,0-.109.978c-.217.435-.435.435-.544.869a3.75,3.75,0,0,0,.87.978h.217V77.4c0-.109.218-.543.218-.652,0-.435-.218-.869.218-1.086.109,0,.218,0,.218.109.109.543-.218,1.2,0,1.738.109.326.435-.217.544.109,0,.109.109.326,0,.326a.106.106,0,0,0,.109.109c.109,0,.544-.109.544,0s.218-.217.326-.109,0,.109.109.326a.477.477,0,0,0,.326.109c.109,0,.217-.217.217-.217l.218.435a4.915,4.915,0,0,0,1.414.326c.326,0,.218-.109.109-.217a1.094,1.094,0,0,1,.109-.326s.217-.109.217.217,0,.543.326.435.761-.543.761-.761a3.366,3.366,0,0,1,.218-.761.4.4,0,0,0,.218-.326.848.848,0,0,0,0-.543l.109-.217V76.1a24.246,24.246,0,0,1,1.632-3.368c.109-.326.435-.435.544-.761,0,0-.326-.109-.109-.326a3.093,3.093,0,0,0,1.2-2.608c.326-.761.435.761.87.761a3.26,3.26,0,0,1,1.088.435c.109.109,0,.217.109.217-.544.326.217.869.109,1.3,0,.109-.326,0-.435.109,0,.109.218.543.218.652-.326.761-.653.869-1.088,1.63-.326.435.109.869-.109,1.086-.326.761-.544.761-.87,1.521l-.544.326-.109.652-.218.543-.326.217V78.6h-.218l-.326.435.109.326-.326.217-.326.217v.435l-.218.435h-.435l-.109.652-.109.217-.544.326-.217.652.653.217-.218.435.653.652.653.543.218.109h.217v.217h.435l.653.435.109.326.544-.109.218-.217.326.326h.544l.326.109.218.326.435-.217.109-.435.217-.326.109-.326.109-.326.435-.326h.218l-.326.761.218.435-.653.217v.978l.218.326a2.391,2.391,0,0,0,.653-.543l.435-.435.544-1.086v-.435l.326-.109.87-1.63.217-.543.218-.435.109-.652a4.337,4.337,0,0,1,.326-.435c.109-.109.435-.543.435-.543l.326-.761a4.526,4.526,0,0,0,.218-.652c.109-.109,0-.326,0-.326l.109-.217.109.217.218-.435.109-.435.326-.435s.218-.217.326-.217.218-.217.218-.217h.326a2.47,2.47,0,0,1,.435.109l.326-.217.435.109h.87l.435.435a6.764,6.764,0,0,0,1.088.326,6.764,6.764,0,0,0,1.088-.326l.544.217,1.305-.109.435.217v-.435c0-.109.326,0,.435.109s-.109.109-.109.217c.109.109.218.109.218,0,0-.326.653-.217.761-.217s-.109.109.218,0c.217,0,.109-.543.217-.761s.87-.435.979-.761c.109-.869-1.088-.435-.979-.869,0-.109.435-.109.544-.109.218-.109.109-.326.109-.652,0-.109-.326-.109-.326-.217a.964.964,0,0,0-.435-.543c0-.109.544.217.653.217.87.435.544-.326.653-.869.109.109.653-.217.761-.543.326-.543-.326-1.2-1.2-.869-.326.109-.326.543-.653.543a22.229,22.229,0,0,1-3.807,0c-.218,0-.544-.217-.761-.217a7.677,7.677,0,0,1-2.719-.652c-.435-.326.218-.761.326-1.412.109-.109.218-.761.435-.869,0-.761.653-1.847,1.088-1.3.544.326.435,1.3.979,1.63a4.307,4.307,0,0,0,2.393.435c.326,0,.761-.652,1.088-.652.544-.109,1.088.217,1.632-.217.109-.109.109-.543.109-.652,0-.326.109-.217.326-.326.544-.109.979-.652,1.414-1.086.435-.761-1.2-.869-.761-1.521.109,0,.653.217.87.217-.109-.435-.544-.543-.761-.978a.653.653,0,0,1-.109-.435c-.109-.326-.653-.435-1.088-.652a5.466,5.466,0,0,1-1.305-.869c-.109,0-.326,0-.326.109-.109-.109-.109-.326-.109-.652-.435.109-.761.326-.653-.217a.836.836,0,0,1,.326-.217c.218-.109.435,0,.653,0a.852.852,0,0,0,.87-.109c.109-.109.435-.543.544-.543.109-.109,0-.217,0-.326a1.384,1.384,0,0,0-1.305,0c-.435.217-.435.435-.761.652a2.644,2.644,0,0,1-1.305,0c-.544-.435.435-.543.544-.652.218.217.435,0,.979-.217.218-.109.435.109.653,0a1.952,1.952,0,0,0,.761-.543c.109-.109.218-.326.326-.326.326-.217.544-.109.653-.217.435-.435.109-1.2.109-1.738,0-.761-.653-.435-.87-.978-.109,0-.544-.217-.653-.217-.326-.217-.435-.326-.218-.435.761-.326.979-.869,1.632-.978.109,0,.109-.217.217-.217.326,0,1.305.109,1.523-.109.653-.326.87-1.086,1.305-1.63.217-.217.544-.326.761-.543a5.46,5.46,0,0,0,.87-1.3c.109-.217.109-.652.218-.869s.544-.109.653-.326a9.918,9.918,0,0,1,.87-1.412c.87-1.086.109-2.173-.761-2.825M130.352,73.163c-.109,0-.218,0-.218-.109s0-.217.109-.217h.218c.109,0,.109.109-.109.326m2.175.326c-.109,0-.218,0-.218-.109s0-.217.109-.217h.218a.4.4,0,0,1-.109.326m-.218-2.39c0-.109,0-.217.109-.217h.218a.4.4,0,0,1-.109.326c-.109,0-.218,0-.218-.109m1.088,1.521c-.109,0-.218,0-.218-.109s0-.217.109-.217h.217a.536.536,0,0,1-.109.326m.218-7.388c-.435,0-.544-.217-.87-.543-.109-.109-.326-.109-.544-.217-.109-.109.217-.217.544-.435.217-.109.326-.435.544-.435a4.882,4.882,0,0,1,1.2-.109c.109.326-.109.543-.218.761-.218.543-.326.978-.653.978m.653.543-.218-.217c0-.109.218-.217.435-.109Zm2.067,6.084c-.217,0-.217-.326,0-.435.109.109.326.435,0,.435m8.049,4.563c-.109,0-.217,0-.217-.109s0-.217.109-.217c.109-.109.435,0,.109.326m-.109-1.2c.109,0,.217,0,.217.109s-.109.109-.109.217c0-.217-.435-.217-.109-.326m.109-2.173c.109.109,0,.435-.109.435s-.109-.109-.109-.217c-.109-.217,0-.326.217-.217m-.326.869c.109,0,.109-.109.218,0s.217.217,0,.326a.4.4,0,0,1-.326-.109c0-.109,0-.217.109-.217m-.653,0c.109.109,0,.435-.109.435s-.109-.109-.109-.217c-.109-.217.109-.326.217-.217m-4.459-2.5c.109.109.435.326.109.435-.109,0-.218-.217-.326-.326,0-.109.109-.109.218-.109m-1.632-3.042c.109.109.217.543,0,.543-.326,0-.326-.435,0-.543m0,4.455c-.109,0-.218,0-.218-.109s0-.217.109-.217h.217c.109.109.109.217-.109.326m2.5-7.171c-.109-.761.218-.869.435-1.2.326.326.435.109.435.435-.109.435-.544.435-.87.761m5.438-1.3c.109.109.218.543,0,.543-.326,0-.326-.326,0-.543m-4.351-1.2c-.217,0-.217-.435,0-.543.109.109.218.543,0,.543m1.523-1.412c-.109.326-.218.217-.544.435a.654.654,0,0,1-.435.109c-.109,0-.326-.109-.109-.326.435-.435.326-.652.979-.652a.653.653,0,0,1,.109.435" transform="translate(-74.119 -25.14)" fill="#e50012"/>
            <path id="パス_49" data-name="パス 49" d="M102.23,60.041l1.632-2.608,5.112,2.064.109-.109L104.95,55.7l1.523-2.39,7.287,4.563-.761,1.3L107.342,55.8l4.786,4.563-.87,1.521-6.2-2.173,5.33,3.585-.761,1.3Z" transform="translate(-65.14 -33.965)" fill="#231815"/>
            <path id="パス_50" data-name="パス 50" d="M128.737,36.275l-5.221-2.282,1.414-1.3,3.263,1.738-1.305-3.477,1.305-1.3,1.849,5.432,2.284,2.5-1.414,1.2Z" transform="translate(-78.703 -18.891)" fill="#231815"/>
            <path id="パス_51" data-name="パス 51" d="M141.2,24.363l1.849-1.3,7.07,5.541-1.414,1.086L147.186,28.6l-1.849,1.3.653,1.738-1.414,1.086Zm3.372,4.237,1.305-.978-2.828-2.608Z" transform="translate(-89.974 -14.693)" fill="#231815"/>
            <path id="パス_52" data-name="パス 52" d="M157.393,11.565l1.632-.652,1.523,3.259.218-.109.435-4.129,1.632-.652-.326,4.346,3.807,3.259-1.74.869L161.2,14.716l-.217.109.435,1.2,1.2,2.716-1.631.652Z" transform="translate(-100.29 -5.915)" fill="#231815"/>
            <path id="パス_53" data-name="パス 53" d="M179.578,6.016l1.632-.326,2.067,8.366-1.632.435Z" transform="translate(-114.426 -3.626)" fill="#231815"/>
            <path id="パス_54" data-name="パス 54" d="M117.82,45.217l1.088-1.2,6.526,5.541-1.088,1.2Z" transform="translate(-75.074 -28.05)" fill="#231815"/>
            <path id="パス_55" data-name="パス 55" d="M214.505,8.909c0-.326-.109-1.3-.109-2.39,0-1.412-.761-1.847-1.088-1.956.217-.109.979-.435.87-2.173,0-1.521-1.305-2.39-2.828-2.39h-2.393l.109,8.692h1.849V5.106h.109c1.523.109,1.523.869,1.632,2.5v1.3Zm-3.263-4.781h-.326V1.63h.326c.653,0,1.088.326,1.088,1.2,0,.761-.326,1.3-1.088,1.3" transform="translate(-133.146)" fill="#231815"/>
            <path id="パス_56" data-name="パス 56" d="M227.407.9l4.46.326-.109,1.3-2.719-.217-.217,2.282,2.5.217L231.214,6l-2.5-.217L228.5,8.069l2.719.217-.109,1.3-4.46-.326Z" transform="translate(-144.417 -0.572)" fill="#231815"/>
            <path id="パス_57" data-name="パス 57" d="M244.2,8.948c-.109,1.2,0,1.738.544,1.738a.969.969,0,0,0,1.2-.652,1.284,1.284,0,0,0-.109-1.086,6.23,6.23,0,0,0-1.2-1.2,2.518,2.518,0,0,1-1.2-2.716A2.64,2.64,0,0,1,246.7,3.19c1.2.217,2.393,1.3,1.849,3.368l-1.632-.217c.218-.761.109-1.521-.544-1.738a.831.831,0,0,0-1.088.652,1.176,1.176,0,0,0,.544,1.3,14.25,14.25,0,0,1,1.414,1.3,2.718,2.718,0,0,1,.653,2.5c-.544,1.847-2.067,1.956-3.372,1.738-1.523-.326-2.5-1.3-1.958-3.368Z" transform="translate(-154.466 -1.994)" fill="#231815"/>
            <path id="パス_58" data-name="パス 58" d="M262.645,7.187l4.895,2.064-.544,1.2-1.74-.652-2.719,6.736-1.414-.652,2.719-6.736-1.74-.652Z" transform="translate(-166.385 -4.58)" fill="#231815"/>
            <path id="パス_59" data-name="パス 59" d="M328.149,77.262l.87,2.282-4.677,3.694,5.221-2.064.544,1.412-8.158,3.259-.87-2.173,4.895-4.02-5.547,2.282-.544-1.412Z" transform="translate(-203.826 -49.231)" fill="#231815"/>
            <path id="パス_60" data-name="パス 60" d="M94.387,103.648c1.2.217,1.74,0,1.74-.543a1.019,1.019,0,0,0-.544-1.2,1.288,1.288,0,0,0-1.088.109,4.171,4.171,0,0,0-1.2,1.2,2.514,2.514,0,0,1-4.46-2.282A2.407,2.407,0,0,1,92.32,99.3l-.326,1.63c-.761-.326-1.523-.217-1.74.543-.218.543.109.978.653,1.2a1.189,1.189,0,0,0,1.305-.435,14.24,14.24,0,0,1,1.305-1.412,2.458,2.458,0,0,1,2.5-.543c1.849.652,1.958,2.064,1.523,3.477-.435,1.521-1.414,2.5-3.481,1.847Z" transform="translate(-56.536 -63.123)" fill="#231815"/>
            <path id="パス_61" data-name="パス 61" d="M273.944,16.77l1.958,1.2-2.5,8.583-1.523-.978.435-1.847-1.958-1.2-1.414,1.3-1.523-.869Zm-2.611,4.781,1.414.869,1.305-3.585Z" transform="translate(-170.397 -10.686)" fill="#231815"/>
            <path id="パス_62" data-name="パス 62" d="M318.282,61.39l1.2,1.956-6.091,6.519-.979-1.521,1.2-1.412-1.2-1.956-1.849.543L309.689,64Zm-4.459,3.042.87,1.412,2.828-2.608Z" transform="translate(-197.332 -39.117)" fill="#231815"/>
            <path id="パス_63" data-name="パス 63" d="M336.135,97.925l.87,5.215-1.305.217-.326-1.847-7.179,1.2-.217-1.521,7.179-1.2-.326-1.847Z" transform="translate(-208.985 -62.397)" fill="#231815"/>
            <path id="パス_64" data-name="パス 64" d="M93.536,83.866l.653-1.63,4.786,1.847c1.414.543,2.067.761,2.5-.109.435-.978-.326-1.412-1.632-1.847L95.059,80.28l.653-1.521,5.221,1.956c2.067.761,2.719,1.847,1.849,3.911-.761,1.521-1.849,2.064-4.024,1.3Z" transform="translate(-59.601 -50.185)" fill="#231815"/>
            <path id="パス_65" data-name="パス 65" d="M291.981,26.053l1.305,1.086-3.154,4.02c-.979,1.086-1.305,1.738-.544,2.39.761.761,1.414.109,2.284-.978l3.154-4.02,1.305,1.086-3.481,4.346c-1.414,1.738-2.61,1.956-4.242.543-1.305-1.086-1.523-2.39-.109-4.129Z" transform="translate(-183.213 -16.601)" fill="#231815"/>
            <path id="パス_66" data-name="パス 66" d="M305.831,40.428l1.523,1.738a2.585,2.585,0,0,1,0,3.694c-1.305,1.087-1.958.761-2.175.652.218.326.326,1.2-.761,2.064-.762.652-1.523,1.3-1.74,1.521l-1.2-1.412s.653-.543.979-.869c1.2-.978,1.74-1.521.761-2.608l-.109-.109-2.719,2.282-1.2-1.412Zm-1.74,3.911.217.326c.544.543.979.543,1.632,0a1.04,1.04,0,0,0,.217-1.63l-.217-.217Z" transform="translate(-190.645 -25.76)" fill="#231815"/>
            <path id="パス_67" data-name="パス 67" d="M292.526,85.1a.916.916,0,0,0-.761-.435c-.217,0-.544.109-.653,0-.326-.109-.217.217-.544-.217,0-.109.326-.217.109-.435.217-.109.217,0,.544-.109a2.562,2.562,0,0,1,.87-.217.576.576,0,0,0,.217-.761,2.554,2.554,0,0,1-.217-.869c.109-.326.544-.326.653-.435,0-.109-.109-.109-.217-.435-.109-.217,0-.761-.109-.978s-.435-.109-.544-.217a2.369,2.369,0,0,0-.87-.543c-.217,0-.544-.435-.761-.326s-.326.652-.544.761c-.326.326-.652.109-.87.217-.326.109-.109-.978-.109-1.412-.109-.652-.653-.869-1.2-1.3-.435-.326-.87-.761-1.305-1.086a1.525,1.525,0,0,0-1.523,0,2.537,2.537,0,0,0-.979,2.716c.109.435.326.869.435,1.3a16.786,16.786,0,0,1,.109,2.39c0,.109-.218.326-.435.435a42.316,42.316,0,0,1-4.459,1.847c-.326.109-.435.435-.326.869a3.258,3.258,0,0,0,.435.869.654.654,0,0,0,.435.109c.109.109.109.543.217.652s.217,0,.435.217c.979.869,2.067,1.521,3.372,1.086.109,0,0,.109,0,.217l-.87.869c-.109.217.435.217.544.435.109.109.217.761.435.869.326.109.326.869,1.849.652.218,0,.218-.217.326-.217a2.4,2.4,0,0,1,.87.109,1.427,1.427,0,0,1,.326,1.3c-.109.326-.653.543-1.088.869a.849.849,0,0,0-.435.435c0,.109.761.109.87.326.217-.109.326,0,.544,0,.217-.109.109-.217.326-.326a5.226,5.226,0,0,1,1.305,0c.109-.109.326-.543.544-.543a1.4,1.4,0,0,0,1.2-.543,4.754,4.754,0,0,0,.653-3.8c0-.109-.326-.217-.218-.326.218-.217.109-.869.435-1.086.109-.109.435.109.544,0a5.292,5.292,0,0,0,1.088-2.39c-.218-.217-.544-.326-.653-.543m-6.961,3.042c-.217.217-.217.326-.326.326-.218,0-.218-.217-.218-.326.218-.217.218-.326.326-.326.217-.109.326.109.217.326" transform="translate(-177.775 -48.488)" fill="#e50012"/>
          </g>
        </g>
      </g>
    </g>
  </g>
</svg>
